<svg width="60" height="60" viewBox="0 0 60 60" fill="none" xmlns="http://www.w3.org/2000/svg">
<path d="M59.329 35.5625C56.4776 35.2622 54.3272 32.8708 54.3272 29.9997C54.3272 27.1285 56.4776 24.7371 59.329 24.4368C59.5407 24.4149 59.7333 24.3035 59.8578 24.1314C59.983 23.9593 60.0285 23.7418 59.9838 23.5338C59.2074 19.9163 57.7894 16.498 55.7694 13.3735C55.6536 13.1948 55.4676 13.0739 55.2581 13.0402C55.0479 13.0065 54.8341 13.0637 54.6678 13.1977C52.4405 14.9966 49.2302 14.8266 47.2021 12.7978C45.174 10.7697 45.0019 7.56019 46.8022 5.33214C46.9363 5.16661 46.9934 4.95201 46.9597 4.7418C46.926 4.53232 46.8052 4.34629 46.6264 4.23056C43.5019 2.21052 40.0836 0.792535 36.4662 0.0161592C36.2604 -0.0270541 36.0406 0.0168917 35.8685 0.142137C35.6964 0.26665 35.5851 0.45928 35.5631 0.670952C35.2628 3.5223 32.8714 5.67272 30.0003 5.67272C27.1292 5.67272 24.7378 3.5223 24.4375 0.670952C24.4155 0.45928 24.3042 0.26665 24.132 0.142137C23.9599 0.0176241 23.7417 -0.0263217 23.5344 0.0161592C19.9169 0.792535 16.4987 2.21052 13.3741 4.23056C13.1954 4.34629 13.0745 4.53232 13.0409 4.7418C13.0072 4.95201 13.0643 5.16661 13.1983 5.33214C14.9986 7.56019 14.8265 10.7697 12.7984 12.7978C10.7696 14.8266 7.55934 14.9973 5.33276 13.1977C5.16723 13.0637 4.95263 13.0065 4.74242 13.0402C4.53294 13.0739 4.34691 13.1948 4.23118 13.3735C2.21114 16.498 0.793154 19.9163 0.0167779 23.5338C-0.0279004 23.7418 0.0175103 23.9593 0.142756 24.1314C0.267269 24.3035 0.459898 24.4149 0.671571 24.4368C3.52292 24.7371 5.67334 27.1285 5.67334 29.9997C5.67334 32.8708 3.52292 35.2622 0.671571 35.5625C0.459898 35.5844 0.267269 35.6958 0.142756 35.8679C0.0175103 36.04 -0.0279004 36.2575 0.0167779 36.4656C0.793154 40.083 2.21114 43.5013 4.23118 46.6258C4.34691 46.8045 4.53294 46.9254 4.74242 46.9591C4.95263 46.9942 5.16723 46.9364 5.33276 46.8016C7.55934 45.0013 10.7696 45.1727 12.7984 47.2015C14.8265 49.2296 14.9986 52.4391 13.1983 54.6672C13.0643 54.8327 13.0072 55.0473 13.0409 55.2575C13.0745 55.467 13.1954 55.653 13.3741 55.7688C16.4987 57.7888 19.9169 59.2068 23.5344 59.9832C23.7409 60.0271 23.9599 59.9824 24.132 59.8572C24.3042 59.7327 24.4155 59.54 24.4375 59.3284C24.7378 56.477 27.1292 54.3266 30.0003 54.3266C32.8714 54.3266 35.2628 56.477 35.5631 59.3284C35.5851 59.54 35.6964 59.7327 35.8685 59.8572C35.9974 59.9509 36.152 60 36.3087 60C36.3614 60 36.4142 59.9941 36.4662 59.9832C40.0836 59.2068 43.5019 57.7888 46.6264 55.7688C46.8052 55.653 46.926 55.467 46.9597 55.2575C46.9934 55.0473 46.9363 54.8327 46.8022 54.6672C45.0019 52.4391 45.174 49.2296 47.2021 47.2015C49.231 45.1727 52.4412 45.002 54.6678 46.8016C54.8341 46.9364 55.0479 46.9942 55.2581 46.9591C55.4676 46.9254 55.6536 46.8045 55.7694 46.6258C57.7894 43.5013 59.2074 40.083 59.9838 36.4656C60.0285 36.2575 59.983 36.04 59.8578 35.8679C59.7333 35.6958 59.5407 35.5844 59.329 35.5625ZM54.9271 45.1463C52.1578 43.398 48.5125 43.7701 46.1416 46.141C43.77 48.5126 43.4001 52.1571 45.1469 54.9265C42.5827 56.4895 39.8214 57.635 36.9181 58.341C36.1966 55.1447 33.357 52.8266 30.0003 52.8266C26.6436 52.8266 23.8039 55.1447 23.0825 58.341C20.1791 57.635 17.4179 56.4895 14.8536 54.9265C16.6005 52.1571 16.2306 48.5126 13.859 46.141C11.4874 43.7686 7.84133 43.3995 5.07348 45.1463C3.51047 42.5821 2.36495 39.8208 1.65889 36.9175C4.85521 36.196 7.17335 33.3564 7.17335 29.9997C7.17335 26.6429 4.85521 23.8033 1.65889 23.0819C2.36495 20.1785 3.51047 17.4172 5.07348 14.853C7.84353 16.6013 11.4881 16.2292 13.859 13.8584C16.2306 11.4868 16.6005 7.84218 14.8536 5.07286C17.4179 3.50985 20.1791 2.36433 23.0825 1.65827C23.8039 4.85459 26.6436 7.17274 30.0003 7.17274C33.357 7.17274 36.1966 4.85459 36.9181 1.65827C39.8214 2.36433 42.5827 3.50985 45.1469 5.07286C43.4001 7.84218 43.77 11.4868 46.1416 13.8584C48.5132 16.2307 52.1592 16.5991 54.9271 14.853C56.4901 17.4172 57.6356 20.1785 58.3417 23.0819C55.1453 23.8033 52.8272 26.6429 52.8272 29.9997C52.8272 33.3564 55.1453 36.196 58.3417 36.9175C57.6356 39.8208 56.4901 42.5821 54.9271 45.1463Z" fill="#14326D"/>
<rect x="11.75" y="11.75" width="36.5" height="36.5" rx="18.25" stroke="#14326D" stroke-width="1.5"/>
<path d="M35.6142 35.876C35.1015 35.876 34.6855 35.4613 34.6855 34.9486C34.6855 34.7017 34.7835 34.4655 34.9579 34.291L39.0325 30.2178L34.9579 26.1445C34.5889 25.7875 34.5795 25.1997 34.9365 24.832C35.2935 24.4629 35.8813 24.4535 36.249 24.8105C36.2571 24.8185 36.2638 24.8253 36.2718 24.8333L41.0014 29.5628C41.3637 29.9252 41.3637 30.513 41.0014 30.8754L36.2718 35.6036C36.096 35.7767 35.8598 35.8747 35.6142 35.876Z" fill="#00B2FF"/>
<path d="M23.6576 35.8764C23.412 35.8764 23.1758 35.7784 23.0013 35.6039L18.2718 30.8744C17.9094 30.5121 17.9094 29.9242 18.2718 29.5619L23.0013 24.8323C23.3637 24.47 23.9515 24.4686 24.3152 24.8323C24.6776 25.1947 24.6789 25.7825 24.3152 26.1462L20.2406 30.2195L24.3152 34.2927C24.6776 34.6551 24.6776 35.2429 24.3152 35.6053C24.1407 35.7784 23.9032 35.8764 23.6576 35.8764Z" fill="#00B2FF"/>
<path d="M27.7002 40.4289C27.6385 40.4289 27.5754 40.4222 27.515 40.4087C27.013 40.3041 26.6909 39.8129 26.7956 39.3109L30.6702 20.7391C30.7749 20.2372 31.2661 19.9151 31.7694 20.0197C32.2713 20.1244 32.5934 20.6156 32.4888 21.1189L28.6141 39.6907C28.5229 40.1215 28.1404 40.4302 27.7002 40.4289Z" fill="#00B2FF"/>
</svg>
