<svg width="60" height="60" viewBox="0 0 60 60" fill="none" xmlns="http://www.w3.org/2000/svg">
<path d="M43.021 60C38.6616 60 34.6463 58.3846 31.5488 55.3846L31.434 55.2692H6.88337C5.0478 55.2692 3.78585 54 3.78585 52.1538V22.5H1.83556C0.803059 22.5 0 21.6923 0 20.6538V11.4231C0 10.5 0.803059 9.57692 1.83556 9.57692H10.325L9.52199 8.76923C8.03059 7.26923 7.22753 5.30769 7.22753 3.23077C7.22753 2.88462 7.68642 2.42308 8.03059 2.42308C8.37476 2.42308 8.83365 2.88462 8.83365 3.23077C8.83365 5.53846 10.0956 7.73077 12.1606 8.76923L13.5373 9.46154L12.8489 8.07692C12.3901 7.26923 12.1606 6.34615 12.1606 5.42308C12.1606 2.30769 14.4551 0 17.5526 0C19.847 0 22.0268 1.61538 22.8298 3.80769L22.9445 4.5L23.5182 4.03846C24.4359 3.23077 25.6979 2.76923 26.9598 2.76923C28.2218 2.76923 29.4837 3.23077 30.4015 4.03846L30.9751 4.5L31.2046 4.03846C31.8929 1.84615 33.9579 0.230769 36.3671 0.230769C39.4646 0.230769 41.7591 2.53846 41.7591 5.65385C41.7591 6.57692 41.5296 7.5 41.0707 8.30769L40.3824 9.69231L41.7591 9C43.7094 7.96154 44.9713 5.65385 44.9713 3.46154C44.9713 3.11538 45.4302 2.65385 45.7744 2.65385C46.1185 2.65385 46.5774 3.11538 46.5774 3.46154C46.5774 5.65385 45.7744 7.5 44.283 9L43.4799 9.69231H51.9694C52.8872 9.69231 53.805 10.5 53.805 11.5385V20.7692C53.805 21.6923 53.0019 22.6154 51.9694 22.6154H49.9044V28.2692L50.2486 28.3846C56.0994 31.0385 60 37.0385 60 43.5C59.5411 52.6154 52.0841 60 43.021 60ZM43.021 28.1538C34.761 28.1538 27.9924 34.9615 27.9924 43.2692C27.9924 51.5769 34.761 58.3846 43.021 58.3846C51.2811 58.3846 58.0497 51.5769 58.0497 43.2692C58.0497 35.0769 51.3958 28.1538 43.021 28.1538ZM22.7151 53.7692H30.0574L29.4837 52.9615C27.5335 50.0769 26.3862 46.8462 26.3862 43.2692C26.3862 39.2308 27.8776 35.3077 30.5163 32.1923L30.631 32.0769V22.3846H22.6004V53.7692H22.7151ZM5.27725 52.1538C5.27725 53.0769 5.96558 53.7692 6.88337 53.7692H21.2237V22.5H5.27725V52.1538ZM32.1224 30.6923L32.8107 30.1154C35.9082 27.9231 39.3499 26.5385 42.9063 26.5385C44.5124 26.5385 46.0038 26.7692 47.4952 27.2308L48.0688 27.3462V22.3846H32.1224V30.6923ZM32.1224 21H51.8547V11.0769H32.1224V21ZM22.7151 21H30.7457V11.0769H22.7151V21ZM1.4914 21H21.2237V11.0769H1.4914V21ZM36.2524 1.61538C34.0727 1.61538 32.3518 3.46154 32.3518 5.53846V9.46154H36.2524C38.4321 9.46154 40.153 7.61538 40.153 5.53846C40.153 3.46154 38.3174 1.61538 36.2524 1.61538ZM26.6157 4.38462C24.4359 4.38462 22.7151 6.23077 22.7151 8.30769V9.46154H30.7457V8.30769C30.7457 6.23077 28.9101 4.38462 26.6157 4.38462ZM17.2084 1.61538C15.0287 1.61538 13.3078 3.46154 13.3078 5.53846C13.3078 7.73077 15.1434 9.46154 17.2084 9.46154H21.109V5.53846C21.2237 3.46154 19.5029 1.61538 17.2084 1.61538Z" fill="#14326D"/>
<path d="M39.8095 50.7694C39.6948 50.7694 39.5801 50.7694 39.5801 50.654C39.3506 50.5386 39.2359 50.3078 39.1212 50.1925C39.0065 49.9617 39.0065 49.7309 39.1212 49.6155L45.6604 36.2309C45.7751 35.8848 46.1193 35.8848 46.3487 35.8848C46.4635 35.8848 46.5782 35.8848 46.5782 36.0001C46.8076 36.1155 46.9223 36.3463 47.0371 36.5771C47.1518 36.8078 47.0371 37.0386 47.0371 37.154L40.4979 50.3078C40.3831 50.654 40.039 50.7694 39.8095 50.7694Z" fill="#00B2FF"/>
<path d="M49.0359 52.2121C48.0771 52.2121 47.2249 51.8907 46.6922 51.1407C46.0531 50.4978 45.627 49.5336 45.627 48.7836C45.627 47.8193 45.9465 46.9621 46.6922 46.4264C47.3314 45.7836 48.2902 45.355 49.0359 45.355C49.9946 45.355 50.8468 45.6764 51.3795 46.4264C52.0186 47.0693 52.4448 48.0336 52.4448 48.7836C52.4448 49.7478 52.1252 50.605 51.3795 51.1407C50.8468 51.8907 49.9946 52.2121 49.0359 52.2121ZM49.0359 47.0693C48.6097 47.0693 48.1836 47.2836 47.7575 47.605C47.4379 47.9264 47.2249 48.4621 47.2249 48.8907C47.2249 49.3193 47.4379 49.7478 47.7575 50.1764C48.0771 50.4978 48.6097 50.7121 49.0359 50.7121C49.462 50.7121 49.8881 50.4978 50.3142 50.1764C50.6338 49.855 50.8468 49.3193 50.8468 48.8907C50.8468 48.4621 50.6338 47.9264 50.3142 47.605C49.9946 47.1764 49.5685 47.0693 49.0359 47.0693Z" fill="#00B2FF"/>
<path d="M37.5637 40.674C36.6049 40.674 35.7527 40.3526 35.2201 39.6026C34.5809 38.9598 34.1548 37.9955 34.1548 37.2455C34.1548 36.2812 34.4744 35.424 35.2201 34.8883C35.8592 34.2455 36.818 33.8169 37.5637 33.8169C38.5224 33.8169 39.3747 34.1383 39.9073 34.8883C40.5465 35.5312 40.9726 36.4955 40.9726 37.2455C40.9726 38.2098 40.653 39.0669 39.9073 39.6026C39.3747 40.3526 38.5224 40.674 37.5637 40.674ZM37.5637 35.5312C37.1376 35.5312 36.7115 35.7455 36.2853 36.0669C35.9658 36.3883 35.7527 36.924 35.7527 37.3526C35.7527 37.7812 35.9658 38.2098 36.2853 38.6383C36.6049 38.9598 37.1376 39.174 37.5637 39.174C37.9898 39.174 38.4159 38.9598 38.842 38.6383C39.1616 38.3169 39.3747 37.7812 39.3747 37.3526C39.3747 36.924 39.1616 36.3883 38.842 36.0669C38.5224 35.6383 38.0963 35.5312 37.5637 35.5312Z" fill="#00B2FF"/>
</svg>
