<svg width="55" height="60" viewBox="0 0 55 60" fill="none" xmlns="http://www.w3.org/2000/svg">
<path d="M25.145 33.8826C24.9064 33.8826 24.6776 33.7922 24.5089 33.6315L19.2747 28.6446C19.1887 28.5655 19.1202 28.4709 19.073 28.3664C19.0259 28.2618 19.0011 28.1493 19 28.0355C18.999 27.9217 19.0218 27.8088 19.067 27.7035C19.1122 27.5981 19.179 27.5024 19.2635 27.422C19.348 27.3415 19.4484 27.2778 19.559 27.2347C19.6696 27.1916 19.788 27.17 19.9075 27.1709C20.0269 27.1719 20.145 27.1956 20.2548 27.2405C20.3645 27.2854 20.4638 27.3507 20.5468 27.4326L25.145 31.8135L37.268 20.2617C37.351 20.1798 37.4503 20.1145 37.5601 20.0696C37.6698 20.0247 37.7879 20.001 37.9073 20C38.0268 19.999 38.1453 20.0207 38.2558 20.0638C38.3664 20.1069 38.4668 20.1706 38.5513 20.2511C38.6358 20.3315 38.7026 20.4272 38.7478 20.5326C38.7931 20.6379 38.8158 20.7508 38.8148 20.8646C38.8138 20.9784 38.7889 21.0909 38.7418 21.1955C38.6946 21.3 38.6261 21.3946 38.5402 21.4737L25.7811 33.6332C25.6121 33.7933 25.3833 33.883 25.145 33.8826Z" fill="#00B2FF"/>
<path d="M54.9752 10.0472C54.9683 9.79552 54.9632 9.62048 54.9649 9.52953C54.9735 9.1989 54.7641 8.90145 54.4503 8.79905L27.7527 0.0373247C27.6015 -0.0124416 27.4383 -0.0124416 27.2877 0.0373247L0.550205 8.79905C0.236418 8.90145 0.026466 9.1989 0.0350238 9.52953C0.037306 9.62048 0.0316007 9.79552 0.0247544 10.0472C-0.27477 20.9272 1.76998 47.5641 27.1736 59.9245C27.2763 59.9748 27.3881 60 27.5 60C27.6118 60 27.723 59.9748 27.8263 59.9245C53.2299 47.5641 55.2753 20.926 54.9752 10.0472ZM27.5 58.4155C3.19115 46.3669 1.2297 20.6297 1.51952 10.089C1.52009 10.0787 1.52066 10.0684 1.52066 10.0581L27.5199 1.53832L53.4798 10.0581C53.4798 10.0684 53.4804 10.0787 53.4804 10.089C53.7708 20.6297 51.8088 46.3669 27.5 58.4155Z" fill="#14326D"/>
<path d="M47.9815 14.7029C47.9764 14.5099 47.9726 14.3757 47.9738 14.306C47.9802 14.0525 47.8241 13.8244 47.5902 13.7459L27.6884 7.02862C27.5757 6.99046 27.454 6.99046 27.3418 7.02862L7.41015 13.7459C7.17624 13.8244 7.01973 14.0525 7.02611 14.306C7.02781 14.3757 7.02356 14.5099 7.01845 14.7029C6.79517 23.0442 8.31944 43.4658 27.2567 52.9421C27.3333 52.9807 27.4166 53 27.5 53C27.5833 53 27.6663 52.9807 27.7432 52.9421C46.6805 43.4658 48.2052 23.0433 47.9815 14.7029ZM27.5 51.7852C9.37886 42.548 7.91668 22.8161 8.13273 14.7349C8.13316 14.727 8.13359 14.7191 8.13359 14.7112L27.5149 8.17938L46.8668 14.7112C46.8668 14.7191 46.8672 14.727 46.8672 14.7349C47.0837 22.8161 45.6211 42.548 27.5 51.7852Z" fill="#14326D"/>
</svg>
