<svg width="173" height="172" viewBox="0 0 173 172" fill="none" xmlns="http://www.w3.org/2000/svg">
<path d="M59.9901 13.4665L54.2768 15.7363L54.1265 18.9141L52.4727 19.5193L53.0741 6.8084L54.5776 6.20312L63.7489 14.9797L62.095 15.585L59.9901 13.4665ZM58.9377 12.5586L54.5776 8.17028L54.4272 14.3744L58.9377 12.5586Z" fill="#041139" fill-opacity="0.4"/>
<path d="M71.5658 7.26418L73.0693 6.96157L74.1218 11.3499C73.6707 11.9551 73.0693 12.4091 72.4679 12.8631C71.7162 13.317 70.9644 13.6197 70.2127 13.771C69.0099 14.0736 67.9574 14.0736 66.905 13.771C65.8525 13.4684 64.9504 13.0144 64.349 12.2578C63.7476 11.5012 63.1463 10.5932 62.8456 9.38266C62.5449 8.32342 62.6952 7.26421 62.9959 6.20496C63.2966 5.14572 63.898 4.38909 64.6497 3.63249C65.4015 2.87589 66.4539 2.42192 67.6567 2.11928C68.5588 1.96796 69.4609 1.81663 70.2127 1.96795C70.9644 2.11927 71.7162 2.42192 72.3176 2.87589L71.5658 4.08643C70.5134 3.48115 69.3106 3.17852 67.9574 3.48116C67.0553 3.63248 66.3036 4.08646 65.7022 4.54042C65.1008 4.99439 64.6497 5.75097 64.4994 6.50758C64.349 7.26418 64.1987 8.02079 64.349 8.92872C64.4994 9.68532 64.9504 10.4419 65.4015 11.0472C65.8525 11.6525 66.6043 11.9552 67.356 12.2578C68.1078 12.4091 68.8595 12.5604 69.7616 12.2578C70.8141 11.9552 71.5658 11.6525 72.3176 10.8959L71.5658 7.26418Z" fill="#041139" fill-opacity="0.4"/>
<path d="M78.1831 11.0464C77.281 10.1385 76.83 8.92791 76.6796 7.26338L76.3789 0.605274L78.0327 0.453944L78.3335 6.96077C78.4838 9.3819 79.6866 10.5925 81.7915 10.5925C82.8439 10.5925 83.5957 10.1385 84.1971 9.5332C84.7985 8.92791 84.9488 7.86868 84.9488 6.65811L84.6481 0.15133L86.302 0L86.6027 6.65811C86.753 8.32264 86.302 9.68453 85.5502 10.5925C84.7985 11.5004 83.5957 11.9543 82.0922 12.1057C80.288 12.257 79.0852 11.9543 78.1831 11.0464Z" fill="#041139" fill-opacity="0.4"/>
<path d="M97.1264 9.83511L90.962 9.22984L89.4585 11.9536L87.8047 11.8023L94.2697 0.755859L95.9236 0.907189L99.983 13.0129L98.3292 12.8615L97.1264 9.83511ZM96.6753 8.47323L94.7208 2.57168L91.7138 8.01924L96.6753 8.47323Z" fill="#041139" fill-opacity="0.4"/>
<path d="M108.553 15.4325L107.049 11.3468C106.748 11.3468 106.448 11.1955 106.297 11.1955L103.591 10.4389L102.689 13.9193L101.035 13.4653L104.042 2.26758L108.402 3.47813C109.906 3.93209 110.958 4.5374 111.56 5.44533C112.161 6.35325 112.311 7.41246 112.011 8.62303C111.71 9.53095 111.409 10.1363 110.808 10.7416C110.206 11.1955 109.455 11.4981 108.703 11.6494L110.357 16.1891L108.553 15.4325ZM109.154 9.68229C109.755 9.37965 110.206 8.77436 110.507 8.01775C110.658 7.26115 110.658 6.50455 110.206 5.89927C109.755 5.29399 109.004 4.84004 108.102 4.68872L105.395 3.93212L104.042 8.92569L106.748 9.68229C107.651 9.98493 108.553 9.98493 109.154 9.68229Z" fill="#041139" fill-opacity="0.4"/>
<path d="M117.122 6.05371L121.632 8.02086C122.685 8.47483 123.587 9.23146 124.339 9.98806C125.09 10.7447 125.391 11.8039 125.541 12.7118C125.692 13.6197 125.541 14.8303 124.94 15.7382C124.489 16.7975 123.737 17.5541 122.985 18.1594C122.083 18.7647 121.181 19.0673 120.129 19.0673C119.076 19.0673 118.024 18.916 116.821 18.3107L112.311 16.3435L117.122 6.05371ZM117.122 17.2514C118.024 17.7054 118.776 17.8567 119.527 17.8567C120.279 17.8567 121.031 17.5541 121.632 17.1001C122.234 16.6462 122.685 16.0409 123.136 15.2843C123.436 14.5277 123.587 13.7711 123.587 13.0145C123.436 12.2579 123.286 11.5012 122.685 10.896C122.234 10.2907 121.482 9.68538 120.73 9.38274L117.873 8.02086L114.265 16.0409L117.122 17.2514Z" fill="#041139" fill-opacity="0.4"/>
<path d="M147.644 39.7952L143.735 34.9529L140.728 35.8608L139.676 34.499L152.004 31.1699L153.057 32.3805L147.494 43.8809L146.442 42.519L147.644 39.7952ZM148.396 38.5846L151.253 32.9857L145.239 34.6503L148.396 38.5846Z" fill="#041139" fill-opacity="0.4"/>
<path d="M156.965 49.0276L157.716 50.3894L153.807 52.6593C153.056 52.3566 152.454 52.054 151.853 51.4487C151.251 50.8434 150.8 50.2381 150.349 49.6328C149.748 48.5736 149.447 47.5143 149.447 46.4551C149.447 45.3958 149.598 44.3366 150.199 43.4287C150.65 42.5208 151.402 41.7641 152.454 41.1589C153.356 40.5536 154.409 40.251 155.461 40.251C156.514 40.251 157.566 40.5536 158.468 41.1589C159.37 41.7641 160.122 42.5208 160.723 43.58C161.175 44.3366 161.475 45.2445 161.626 46.0012C161.776 46.7578 161.626 47.6657 161.475 48.4223L160.122 48.1196C160.423 46.9091 160.272 45.6985 159.521 44.4879C159.07 43.7313 158.468 43.126 157.867 42.6721C157.115 42.2181 156.514 42.0668 155.612 42.0668C154.71 42.0668 154.108 42.2181 153.356 42.6721C152.605 43.126 152.154 43.58 151.703 44.3366C151.251 45.0932 151.101 45.6985 151.101 46.6064C151.101 47.5143 151.402 48.1196 151.853 48.8762C152.304 49.7842 153.056 50.3895 153.807 50.8434L156.965 49.0276Z" fill="#041139" fill-opacity="0.4"/>
<path d="M155.461 56.5942C155.913 55.535 156.965 54.627 158.619 54.0218L164.783 51.752L165.385 53.2652L159.22 55.535C156.965 56.4429 156.063 57.8048 156.815 59.9233C157.115 60.9826 157.717 61.5878 158.468 61.8905C159.22 62.1931 160.273 62.1931 161.325 61.7391L167.489 59.4693L168.091 60.9825L161.927 63.2523C160.423 63.8576 159.07 63.8576 157.867 63.4037C156.815 62.9497 155.913 61.8905 155.311 60.5286C155.01 59.0154 155.01 57.6535 155.461 56.5942Z" fill="#041139" fill-opacity="0.4"/>
<path d="M162.378 74.2963L161.175 68.2434L158.018 67.6381L157.717 65.9736L170.045 68.8487L170.346 70.5133L159.972 78.0793L159.671 76.4148L162.378 74.2963ZM163.58 73.5397L168.692 69.9079L162.678 68.5461L163.58 73.5397Z" fill="#041139" fill-opacity="0.4"/>
<path d="M160.424 87.0092L163.882 84.2854C163.882 83.9827 163.882 83.6801 163.882 83.5288L163.731 80.6537L160.273 80.805V79.1405L171.85 78.6865L172.001 83.2261C172.001 84.7394 171.7 85.9499 171.099 86.8578C170.497 87.7658 169.445 88.2197 168.242 88.2197C167.34 88.2197 166.588 88.0684 165.987 87.6144C165.385 87.1605 164.784 86.5552 164.483 85.7986L160.724 88.6737L160.424 87.0092ZM165.987 85.9499C166.438 86.5552 167.19 86.7065 167.941 86.7065C168.843 86.7065 169.445 86.4039 169.896 85.7986C170.347 85.1933 170.497 84.4367 170.497 83.3775L170.347 80.5023L165.085 80.805L165.235 83.6801C165.385 84.588 165.536 85.3446 165.987 85.9499Z" fill="#041139" fill-opacity="0.4"/>
<path d="M172.001 92.3043L171.4 97.1465C171.249 98.3571 170.949 99.4163 170.347 100.324C169.746 101.232 168.994 101.837 168.092 102.291C167.19 102.745 166.137 102.897 164.935 102.745C163.732 102.594 162.83 102.291 162.078 101.535C161.326 100.93 160.725 100.022 160.274 99.1137C159.973 98.0545 159.823 96.9952 159.973 95.7846L160.574 90.9424L172.001 92.3043ZM161.326 95.936C161.176 96.8439 161.326 97.7518 161.627 98.5084C161.928 99.265 162.379 99.8703 162.98 100.324C163.581 100.778 164.333 101.081 165.235 101.232C166.137 101.384 166.889 101.232 167.491 100.93C168.242 100.627 168.693 100.173 169.144 99.4163C169.595 98.6597 169.896 97.9031 170.046 96.9952L170.498 93.8175L161.928 92.7582L161.326 95.936Z" fill="#041139" fill-opacity="0.4"/>
<path d="M149.147 131.951L152.455 126.806L150.801 124.083L151.703 122.721L158.469 133.464L157.567 134.826L144.938 132.859L145.84 131.346L149.147 131.951ZM150.5 132.254L156.665 133.313L153.207 128.017L150.5 132.254Z" fill="#041139" fill-opacity="0.4"/>
<path d="M143.284 143.606L142.232 144.816L138.924 141.79C138.924 141.033 139.074 140.277 139.525 139.52C139.976 138.764 140.277 138.158 140.878 137.553C141.63 136.645 142.532 136.04 143.585 135.737C144.637 135.435 145.539 135.283 146.592 135.586C147.644 135.889 148.546 136.342 149.448 137.099C150.35 137.856 150.801 138.764 151.102 139.823C151.403 140.882 151.403 141.79 151.253 142.849C150.952 143.909 150.501 144.816 149.749 145.724C149.148 146.481 148.396 146.935 147.644 147.238C146.892 147.54 146.141 147.843 145.389 147.843V146.33C146.742 146.178 147.794 145.724 148.697 144.665C149.298 144.06 149.749 143.303 149.899 142.547C150.05 141.79 150.05 141.033 149.899 140.277C149.599 139.52 149.298 138.915 148.546 138.31C147.945 137.704 147.193 137.402 146.441 137.25C145.69 137.099 144.938 137.099 144.186 137.402C143.434 137.704 142.833 138.158 142.232 138.764C141.48 139.52 141.179 140.428 141.029 141.336L143.284 143.606Z" fill="#041139" fill-opacity="0.4"/>
<path d="M135.616 144.359C136.819 144.511 138.022 145.267 138.924 146.629L142.984 151.774L141.63 152.833L137.571 147.689C136.068 145.721 134.414 145.419 132.76 146.781C131.858 147.386 131.407 148.142 131.407 149.05C131.407 149.958 131.707 150.866 132.459 151.774L136.519 156.919L135.316 157.978L131.256 152.833C130.204 151.472 129.753 150.261 129.903 149.05C130.054 147.84 130.655 146.781 131.858 145.721C133.211 144.662 134.414 144.208 135.616 144.359Z" fill="#041139" fill-opacity="0.4"/>
<path d="M120.882 156.465L126.294 153.438L125.994 150.261L127.497 149.504L128.55 162.215L127.046 162.971L116.822 155.405L118.326 154.498L120.882 156.465ZM121.934 157.373L126.896 161.156L126.294 154.951L121.934 157.373Z" fill="#041139" fill-opacity="0.4"/>
<path d="M108.251 158.435L111.86 161.007C112.161 160.856 112.311 160.856 112.461 160.705L115.168 159.645L113.965 156.316L115.468 155.711L119.377 166.606L115.168 168.119C113.814 168.573 112.461 168.725 111.409 168.271C110.356 167.817 109.605 167.06 109.154 165.849C108.853 164.942 108.853 164.185 109.003 163.428C109.154 162.672 109.605 162.066 110.356 161.461L106.447 158.737L108.251 158.435ZM111.108 163.428C110.807 164.034 110.657 164.79 110.958 165.547C111.258 166.303 111.71 166.909 112.461 167.06C113.213 167.211 113.965 167.211 115.017 166.909L117.723 166.001L115.919 161.007L113.213 161.915C112.01 162.369 111.409 162.823 111.108 163.428Z" fill="#041139" fill-opacity="0.4"/>
<path d="M106.748 170.993L101.937 171.9C100.734 172.052 99.6814 172.052 98.6289 171.749C97.5765 171.447 96.8247 170.841 96.073 170.085C95.3212 169.328 95.0205 168.42 94.7198 167.21C94.5695 166.15 94.5695 165.091 94.8702 164.032C95.1709 162.973 95.7723 162.216 96.6744 161.611C97.5765 161.005 98.4786 160.551 99.6814 160.249L104.493 159.341L106.748 170.993ZM100.132 161.913C99.2303 162.065 98.4786 162.367 97.7268 162.973C97.1254 163.426 96.6744 164.032 96.3737 164.788C96.073 165.545 96.073 166.302 96.2233 167.21C96.3737 168.117 96.6744 168.723 97.2758 169.328C97.7268 169.933 98.4786 170.236 99.2303 170.539C99.9821 170.841 100.884 170.841 101.786 170.69L104.793 170.085L103.139 161.459L100.132 161.913Z" fill="#041139" fill-opacity="0.4"/>
<path d="M62.3959 161.007L68.2595 162.671L70.2141 160.25L71.8679 160.704L63.7491 170.54L62.2456 170.086L60.291 157.375L61.9449 157.829L62.3959 161.007ZM62.5463 162.52L63.4484 168.724L67.3575 163.882L62.5463 162.52Z" fill="#041139" fill-opacity="0.4"/>
<path d="M49.4639 158.887L47.9605 158.282L49.915 154.196C50.6667 154.045 51.4185 153.894 52.1702 154.045C52.922 154.196 53.6737 154.348 54.4255 154.65C55.4779 155.104 56.38 155.861 56.9814 156.618C57.5828 157.525 58.0339 158.433 58.0339 159.493C58.1842 160.552 58.0339 161.611 57.4325 162.67C56.9814 163.73 56.2297 164.486 55.4779 165.092C54.5758 165.697 53.6737 165.999 52.6213 166.151C51.5688 166.151 50.5164 165.999 49.4639 165.545C48.5619 165.092 47.9605 164.638 47.3591 164.032C46.7577 163.427 46.4569 162.822 46.1562 162.065L47.5094 161.611C47.9604 162.822 48.8626 163.73 50.0654 164.184C50.8171 164.486 51.7192 164.638 52.4709 164.638C53.2227 164.638 53.9744 164.335 54.5758 163.881C55.1772 163.427 55.7786 162.822 56.0793 162.065C56.38 161.309 56.5304 160.552 56.5304 159.795C56.38 159.039 56.2297 158.282 55.6283 157.677C55.0269 157.072 54.5758 156.466 53.6737 156.164C52.7716 155.71 51.8695 155.558 50.9674 155.71L49.4639 158.887Z" fill="#041139" fill-opacity="0.4"/>
<path d="M46.4574 151.773C46.6078 152.984 46.3071 154.346 45.405 155.708L41.6462 161.155L40.2931 160.247L43.9015 154.8C45.2546 152.681 45.1043 151.017 43.3001 149.806C42.398 149.201 41.6462 149.049 40.7441 149.201C39.9924 149.352 39.2406 149.957 38.4889 151.017L34.8805 156.464L33.5273 155.556L37.2861 150.109C38.1882 148.747 39.2406 147.839 40.4434 147.688C41.6462 147.385 42.849 147.839 44.2022 148.595C45.405 149.503 46.1567 150.563 46.4574 151.773Z" fill="#041139" fill-opacity="0.4"/>
<path d="M30.6707 141.335L35.1812 145.572L38.0378 144.361L39.2406 145.572L27.5133 150.414L26.3105 149.355L30.5203 137.249L31.7231 138.46L30.6707 141.335ZM30.0693 142.697L27.9644 148.598L33.6777 146.177L30.0693 142.697Z" fill="#041139" fill-opacity="0.4"/>
<path d="M24.9586 129.834L23.6055 134.071C23.7558 134.373 23.9062 134.525 24.0565 134.676L25.8607 136.946L28.7174 134.827L29.7698 136.189L20.5985 143.301L17.8922 139.669C16.9901 138.459 16.5391 137.248 16.5391 136.189C16.5391 135.13 17.1405 134.071 18.0426 133.314C18.7943 132.709 19.5461 132.406 20.2978 132.406C21.0496 132.406 21.8013 132.557 22.553 133.011L23.9062 128.472L24.9586 129.834ZM21.0496 133.919C20.2978 133.768 19.6964 133.919 18.9447 134.525C18.3433 134.978 17.8922 135.584 17.8922 136.34C17.8922 137.097 18.1929 137.854 18.7943 138.61L20.4482 140.88L24.5076 137.702L22.8537 135.432C22.4027 134.676 21.651 134.071 21.0496 133.919Z" fill="#041139" fill-opacity="0.4"/>
<path d="M12.4796 132.104L10.2244 127.716C9.62297 126.657 9.32227 125.598 9.32227 124.538C9.32227 123.479 9.62296 122.42 10.074 121.663C10.6754 120.755 11.4272 119.999 12.3293 119.545C13.3817 118.939 14.2838 118.788 15.3363 118.788C16.3887 118.788 17.2908 119.091 18.1929 119.847C19.095 120.604 19.8467 121.361 20.2978 122.42L22.553 126.808L12.4796 132.104ZM19.2454 123.176C18.7943 122.42 18.1929 121.663 17.5915 121.209C16.9901 120.755 16.2384 120.453 15.4866 120.453C14.7349 120.453 13.9831 120.604 13.2314 121.058C12.4796 121.512 11.8782 121.966 11.4272 122.722C10.9761 123.328 10.8258 124.084 10.8258 124.841C10.8258 125.598 11.1265 126.505 11.5775 127.262L13.081 129.986L20.7488 125.9L19.2454 123.176Z" fill="#041139" fill-opacity="0.4"/>
<path d="M8.56993 86.5566L8.72029 92.7607L11.7273 93.9713V95.6358L0 90.6423V88.9777L11.4266 83.2275V85.0434L8.56993 86.5566ZM7.36714 87.1619L1.80419 89.8856L7.51748 92.1555L7.36714 87.1619Z" fill="#041139" fill-opacity="0.4"/>
<path d="M6.76602 73.5433L6.91637 72.0301L11.4269 72.6354C11.8779 73.2407 12.1786 73.9973 12.329 74.7539C12.4793 75.5105 12.4793 76.4184 12.4793 77.175C12.329 78.3856 11.8779 79.2935 11.2765 80.2014C10.6751 81.1094 9.92336 81.7146 8.87092 82.1686C7.81847 82.6226 6.91637 82.7739 5.71358 82.6226C4.51078 82.4713 3.60868 82.0173 2.85693 81.412C1.95483 80.8067 1.35343 79.8988 1.05273 78.9908C0.601677 77.9316 0.601682 76.8724 0.752031 75.6618C0.902381 74.7539 1.05273 73.846 1.50378 73.2407C1.95483 72.4841 2.40588 71.8788 3.00728 71.4248L3.90937 72.6354C2.85692 73.392 2.25553 74.4513 2.10518 75.8131C1.95483 76.7211 2.10518 77.4776 2.40588 78.2342C2.70657 78.9908 3.15763 79.5961 3.75902 80.0501C4.36042 80.5041 5.11217 80.8067 6.01427 80.958C6.91637 81.1094 7.66812 80.958 8.26952 80.6554C9.02126 80.3527 9.62266 79.8988 10.0737 79.1422C10.5248 78.5369 10.8255 77.7803 10.9758 76.8724C11.1262 75.8131 10.9758 74.9052 10.5248 73.9973L6.76602 73.5433Z" fill="#041139" fill-opacity="0.4"/>
<path d="M12.4796 68.3989C11.4272 69.0042 10.074 69.0042 8.42015 68.5503L2.10547 66.5831L2.55651 64.9186L8.8712 66.7345C11.2768 67.4911 12.7803 66.7344 13.3817 64.6159C13.6824 63.5567 13.6824 62.8001 13.2313 62.0435C12.7803 61.2869 12.0285 60.8329 10.8257 60.379L4.51106 58.8657L4.96211 57.3525L11.2768 59.3197C12.9306 59.7737 13.9831 60.5303 14.5845 61.7408C15.1859 62.8001 15.1859 64.162 14.7348 65.5239C14.4341 66.8857 13.6824 67.945 12.4796 68.3989Z" fill="#041139" fill-opacity="0.4"/>
<path d="M17.7416 50.0893L15.0353 55.6882L17.1402 58.1093L16.3884 59.6225L8.26953 49.7866L9.02128 48.2734L21.801 48.5761L21.0493 50.0893H17.7416ZM16.3884 50.0893L10.2241 49.7866L14.2835 54.4776L16.3884 50.0893Z" fill="#041139" fill-opacity="0.4"/>
<path d="M26.9122 41.1598H22.5521C22.4017 41.4624 22.2514 41.6138 22.101 41.7651L20.4472 44.1862L23.3038 46.1534L22.4017 47.5153L12.9297 40.8572L15.4856 37.0742C16.3877 35.8636 17.2898 35.107 18.3423 34.8043C19.3947 34.5017 20.4472 34.653 21.4996 35.4096C22.2514 35.8636 22.7024 36.6202 23.0031 37.2255C23.3038 37.9821 23.3038 38.7387 23.0031 39.6466H27.8143L26.9122 41.1598ZM21.8003 38.7387C21.8003 37.9821 21.3493 37.3768 20.7479 36.9228C19.9961 36.4689 19.3947 36.3176 18.643 36.4689C17.8912 36.6202 17.2898 37.2254 16.6884 38.1334L15.0346 40.4032L19.2444 43.4296L20.8982 41.1598C21.65 40.2519 21.8003 39.4953 21.8003 38.7387Z" fill="#041139" fill-opacity="0.4"/>
<path d="M21.0488 29.9612L24.5069 26.4808C25.409 25.5729 26.3111 24.9676 27.3635 24.6649C28.416 24.3623 29.3181 24.211 30.3705 24.5136C31.423 24.8162 32.3251 25.2702 33.0768 26.0268C33.8285 26.7834 34.4299 27.6914 34.7306 28.7506C35.0313 29.8099 35.0313 30.7178 34.5803 31.777C34.2796 32.8363 33.6782 33.7442 32.7761 34.6521L29.3181 38.1325L21.0488 29.9612ZM31.5733 33.7442C32.1747 33.1389 32.6258 32.3823 32.9265 31.6257C33.2272 30.8691 33.2272 30.1125 32.9265 29.3559C32.6258 28.5993 32.3251 27.994 31.7237 27.3887C31.1223 26.7834 30.3705 26.3295 29.7691 26.1781C29.0174 26.0268 28.2656 26.0268 27.5139 26.3295C26.7621 26.6321 26.0104 27.0861 25.409 27.6913L23.1537 29.9612L29.3181 36.014L31.5733 33.7442Z" fill="#041139" fill-opacity="0.4"/>
<ellipse cx="41.0745" cy="16.7224" rx="1.42413" ry="1.43333" fill="#00B2FF"/>
<ellipse cx="136.018" cy="22.4558" rx="1.42413" ry="1.43333" fill="#00B2FF"/>
<ellipse cx="162.623" cy="116.069" rx="1.42413" ry="1.43333" fill="#00B2FF"/>
<ellipse cx="4.9964" cy="106.545" rx="1.42413" ry="1.43333" fill="#00B2FF"/>
<ellipse cx="82.8499" cy="169.611" rx="1.42413" ry="1.43333" fill="#00B2FF"/>
</svg>
