<svg width="13" height="13" viewBox="0 0 13 13" fill="none" xmlns="http://www.w3.org/2000/svg">
<g clip-path="url(#clip0_332_4196)">
<path d="M6.5 0C5.21442 0 3.95772 0.381218 2.8888 1.09545C1.81988 1.80968 0.986755 2.82484 0.494786 4.01256C0.00281637 5.20028 -0.125905 6.50721 0.124899 7.76809C0.375702 9.02896 0.994767 10.1872 1.90381 11.0962C2.81285 12.0052 3.97104 12.6243 5.23191 12.8751C6.49279 13.1259 7.79972 12.9972 8.98744 12.5052C10.1752 12.0132 11.1903 11.1801 11.9046 10.1112C12.6188 9.04229 13 7.78558 13 6.5C13 4.77609 12.3152 3.12279 11.0962 1.90381C9.87721 0.68482 8.22391 0 6.5 0ZM7.09091 10.0455C7.09091 10.2022 7.02865 10.3525 6.91784 10.4633C6.80702 10.5741 6.65672 10.6364 6.5 10.6364C6.34328 10.6364 6.19298 10.5741 6.08217 10.4633C5.97135 10.3525 5.90909 10.2022 5.90909 10.0455V9.45454C5.90909 9.29782 5.97135 9.14752 6.08217 9.03671C6.19298 8.92589 6.34328 8.86364 6.5 8.86364C6.65672 8.86364 6.80702 8.92589 6.91784 9.03671C7.02865 9.14752 7.09091 9.29782 7.09091 9.45454V10.0455ZM7.09091 7.09091C7.09091 7.24763 7.02865 7.39793 6.91784 7.50874C6.80702 7.61956 6.65672 7.68182 6.5 7.68182C6.34328 7.68182 6.19298 7.61956 6.08217 7.50874C5.97135 7.39793 5.90909 7.24763 5.90909 7.09091V2.95455C5.90909 2.79783 5.97135 2.64753 6.08217 2.53671C6.19298 2.42589 6.34328 2.36364 6.5 2.36364C6.65672 2.36364 6.80702 2.42589 6.91784 2.53671C7.02865 2.64753 7.09091 2.79783 7.09091 2.95455V7.09091Z" fill="#F53333"/>
</g>
<defs>
<clipPath id="clip0_332_4196">
<rect width="13" height="13" fill="white"/>
</clipPath>
</defs>
</svg>
