<svg width="25" height="25" viewBox="0 0 25 25" fill="none" xmlns="http://www.w3.org/2000/svg">
<path d="M19.0188 4.95557H5.39675C5.17774 4.95557 5 5.13331 5 5.35232V24.6034C5 24.8216 5.17774 25.0002 5.39675 25.0002H19.0188C19.2378 25.0002 19.4155 24.8216 19.4155 24.6034V5.35232C19.4155 5.13252 19.2378 4.95557 19.0188 4.95557Z" fill="#00B2FF"/>
<path d="M19.0188 0C18.7998 0 18.622 0.177744 18.622 0.39675V0.820479H5.7935V0.39675C5.7935 0.177744 5.61576 0 5.39675 0C5.17774 0 5 0.177744 5 0.39675V2.03612C5 2.25513 5.17774 2.43287 5.39675 2.43287C5.61576 2.43287 5.7935 2.25513 5.7935 2.03612V1.61398H18.622V2.03691C18.622 2.25592 18.7998 2.43366 19.0188 2.43366C19.2378 2.43366 19.4155 2.25592 19.4155 2.03691V0.39675C19.4155 0.177744 19.2378 0 19.0188 0Z" fill="#00B2FF"/>
</svg>
