<svg width="20" height="20" viewBox="0 0 20 20" fill="none" xmlns="http://www.w3.org/2000/svg">
<path d="M16.4228 19.659C12.1547 20.1143 7.85013 20.1143 3.58194 19.659C2.7531 19.5714 1.9793 19.2025 1.38955 18.6135C0.799793 18.0246 0.429723 17.2513 0.341033 16.4226C-0.114329 12.1544 -0.114329 7.84989 0.341033 3.5817C0.42856 2.75285 0.797544 1.97905 1.38647 1.3893C1.9754 0.799549 2.74868 0.429479 3.5774 0.340789C7.84559 -0.114573 12.1501 -0.114573 16.4183 0.340789C17.2471 0.428316 18.0209 0.7973 18.6107 1.38623C19.2005 1.97515 19.5705 2.74843 19.6592 3.57715C20.1146 7.84534 20.1146 12.1499 19.6592 16.4181C19.5717 17.2469 19.2027 18.0207 18.6138 18.6105C18.0248 19.2002 17.2516 19.5703 16.4228 19.659Z" fill="#00B2FF"/>
<path d="M15.7762 6.98274V6.96796C15.6421 6.42478 15.2921 5.86342 14.833 5.39069C14.2967 4.83615 13.6137 4.40092 12.9614 4.26001H12.9478C11.0026 3.88729 9.00436 3.88729 7.05917 4.26001H7.04554C5.83417 4.52251 4.5194 5.78842 4.22622 6.96796V6.98274C3.866 8.61806 3.866 10.3122 4.22622 11.9475V11.9611C4.43531 12.8021 5.16258 13.6861 6.00122 14.2202C6.2751 14.3987 6.57323 14.5369 6.88644 14.6305V15.9464C6.88689 16.0515 6.91863 16.1542 6.97763 16.2412C7.03663 16.3283 7.12022 16.3958 7.21773 16.4352C7.31525 16.4745 7.42228 16.484 7.52518 16.4623C7.62809 16.4406 7.7222 16.3888 7.79554 16.3134L9.12963 14.9271C9.41826 14.943 9.70917 14.9521 9.99781 14.9521C10.9859 14.9517 11.9717 14.8581 12.9421 14.6725H12.9558C14.1637 14.4089 15.4796 13.143 15.7705 11.9634V11.9498C16.133 10.3141 16.1349 8.6192 15.7762 6.98274ZM14.7205 11.7043C14.5251 12.4736 13.5274 13.4316 12.733 13.6077C11.7013 13.8054 10.6513 13.8911 9.60122 13.8634C9.59099 13.8628 9.58076 13.8645 9.57131 13.8684C9.56185 13.8724 9.55342 13.8784 9.54667 13.8861L8.57281 14.8861L7.53645 15.9486C7.51987 15.9662 7.49841 15.9783 7.47485 15.9835C7.45129 15.9887 7.42672 15.9867 7.40431 15.9777C7.38191 15.9688 7.3627 15.9533 7.34918 15.9334C7.33567 15.9134 7.32846 15.8898 7.32849 15.8657V13.6839C7.32852 13.6663 7.32239 13.6493 7.31118 13.6358C7.29997 13.6223 7.28438 13.6132 7.26713 13.61C7.10145 13.5707 6.94172 13.5095 6.79213 13.4282C6.11713 13.068 5.43644 12.3293 5.27963 11.7043C4.95481 10.2261 4.95481 8.69503 5.27963 7.21683C5.47394 6.45092 6.47735 5.49524 7.26599 5.31797C9.07196 4.97241 10.9271 4.97241 12.733 5.31797C13.1705 5.41569 13.6705 5.74865 14.0614 6.15774C14.383 6.49069 14.6296 6.87478 14.7205 7.22024C15.0449 8.69734 15.0449 10.2272 14.7205 11.7043Z" fill="white"/>
<path d="M12.7617 11.8181C12.614 12.155 12.3602 12.4343 12.0389 12.6135C11.9381 12.6563 11.8335 12.6894 11.7264 12.7124C11.6048 12.676 11.4889 12.651 11.3855 12.6067C10.5241 12.2715 9.72221 11.7999 9.01053 11.2101C8.79913 11.0298 8.60054 10.835 8.41622 10.6272C7.96103 10.103 7.57878 9.51965 7.27985 8.89307C7.1344 8.59648 7.01167 8.28966 6.88667 7.98398C6.77304 7.70557 6.94122 7.4158 7.11395 7.20784C7.28302 7.01498 7.49098 6.86008 7.72417 6.7533C7.80623 6.71206 7.90013 6.70084 7.98959 6.7216C8.07906 6.74236 8.15843 6.79377 8.21394 6.86693C8.50428 7.19313 8.76018 7.54842 8.97758 7.92716C9.04606 8.03728 9.06951 8.16955 9.04306 8.29651C9.01661 8.42346 8.9423 8.53536 8.83553 8.60898C8.77871 8.64875 8.7219 8.6942 8.67303 8.73852C8.62486 8.77419 8.58332 8.81804 8.55031 8.86807C8.52182 8.91489 8.50453 8.96766 8.4998 9.02226C8.49507 9.07686 8.50302 9.13182 8.52303 9.18284C8.74235 9.78624 9.0753 10.2897 9.57303 10.6431C9.74147 10.7622 9.92295 10.8617 10.1139 10.9397C10.2387 11.0075 10.3788 11.0419 10.5208 11.0397C10.7685 11.0101 10.8503 10.7362 11.023 10.5953C11.1023 10.5304 11.2004 10.4928 11.3028 10.4881C11.4051 10.4834 11.5063 10.5118 11.5912 10.5692C11.7753 10.6828 11.9526 10.8112 12.1298 10.9362C12.3052 11.0559 12.474 11.1849 12.6355 11.3226C12.7111 11.3775 12.765 11.4571 12.7881 11.5475C12.8111 11.638 12.8018 11.7337 12.7617 11.8181Z" fill="white"/>
<path d="M10.3261 6.37259H10.1807C10.2273 6.37032 10.2761 6.37259 10.3261 6.37259Z" fill="white"/>
<path d="M12.8412 9.77826C12.7276 9.77826 12.6719 9.68166 12.6639 9.57598C12.6491 9.36803 12.6378 9.15894 12.6094 8.95212C12.5603 8.60317 12.4387 8.26836 12.2526 7.96916C12.0612 7.65748 11.8066 7.38942 11.5051 7.18232C11.2037 6.97522 10.8621 6.8337 10.5026 6.76689C10.3389 6.73735 10.1719 6.73053 10.0071 6.71348C9.90255 6.70212 9.76505 6.6953 9.74233 6.56575C9.73893 6.54059 9.74094 6.515 9.74823 6.49068C9.75552 6.46636 9.76791 6.44387 9.78458 6.42473C9.80126 6.40558 9.82182 6.39021 9.84491 6.37965C9.868 6.36909 9.89307 6.36358 9.91846 6.36348C9.94571 6.36191 9.97303 6.36191 10.0003 6.36348C10.497 6.36769 10.985 6.49433 11.4211 6.73218C11.8571 6.97004 12.2278 7.31178 12.5003 7.72712C12.7154 8.0619 12.8614 8.43627 12.9298 8.82826C12.973 9.07371 12.9889 9.32598 13.0082 9.57598C13.0121 9.60048 13.0107 9.62553 13.0042 9.64946C12.9977 9.67339 12.9861 9.69566 12.9703 9.71479C12.9545 9.73391 12.9348 9.74946 12.9126 9.76041C12.8903 9.77135 12.866 9.77743 12.8412 9.77826Z" fill="white"/>
<path d="M12.2261 9.24753C12.2254 9.28128 12.2209 9.31484 12.2124 9.34753C12.2025 9.38038 12.1827 9.40938 12.1557 9.43058C12.1287 9.45178 12.0959 9.46415 12.0616 9.46601C12.0273 9.46788 11.9933 9.45914 11.9642 9.44099C11.9351 9.42284 11.9122 9.39616 11.8988 9.36457C11.8863 9.31868 11.8806 9.27121 11.8818 9.22366C11.8844 8.96949 11.8341 8.71755 11.734 8.48389C11.7113 8.43389 11.6863 8.38275 11.6579 8.33389C11.4952 8.05352 11.2538 7.8271 10.9636 7.68275C10.7885 7.60008 10.6025 7.54269 10.4113 7.5123C10.3272 7.49866 10.2431 7.49071 10.159 7.47934C10.1371 7.47825 10.1157 7.47267 10.0961 7.46296C10.0764 7.45325 10.059 7.43961 10.0448 7.42289C10.0306 7.40616 10.0201 7.38671 10.0137 7.36574C10.0074 7.34476 10.0054 7.32271 10.0079 7.30093C10.0079 7.27866 10.0126 7.25665 10.0217 7.23633C10.0309 7.21602 10.0442 7.19786 10.0608 7.18305C10.0774 7.16824 10.097 7.15712 10.1183 7.15041C10.1395 7.1437 10.1619 7.14155 10.184 7.14412C10.5177 7.15699 10.8446 7.2423 11.142 7.39412C11.5052 7.57687 11.8014 7.86955 11.9886 8.23048C12.094 8.44122 12.1646 8.66763 12.1977 8.90093C12.2038 8.93136 12.2083 8.96208 12.2113 8.99298C12.217 9.06116 12.2193 9.12934 12.2249 9.21343C12.2249 9.22139 12.2261 9.23162 12.2261 9.24753Z" fill="white"/>
<path d="M11.4477 9.09058C11.4413 9.11939 11.4264 9.14561 11.4049 9.16586C11.3834 9.18612 11.3564 9.19948 11.3272 9.20422H11.3022C11.265 9.20663 11.228 9.19684 11.1969 9.17634C11.1657 9.15583 11.142 9.12573 11.1295 9.09058C11.1225 9.07195 11.1179 9.05246 11.1159 9.03263C11.1099 8.95616 11.0985 8.88021 11.0818 8.80536C11.048 8.65382 10.9619 8.51903 10.8386 8.42467C10.779 8.38188 10.7125 8.34959 10.642 8.32922C10.5523 8.30308 10.4579 8.3099 10.3693 8.28831C10.3255 8.28055 10.2865 8.25574 10.261 8.21932C10.2354 8.1829 10.2253 8.13783 10.2329 8.09399C10.2414 8.052 10.2649 8.01453 10.299 7.98859C10.3331 7.96265 10.3754 7.95003 10.4182 7.95309C10.9386 7.99059 11.3272 8.24058 11.4272 8.79854C11.4375 8.85034 11.4447 8.9027 11.4488 8.95535C11.4552 9.00024 11.4548 9.04582 11.4477 9.09058Z" fill="white"/>
</svg>
