<svg width="20" height="20" viewBox="0 0 20 20" fill="none" xmlns="http://www.w3.org/2000/svg">
<g clip-path="url(#clip0_473_10495)">
<path d="M15.0002 11.25C11.5502 11.25 8.75016 8.45 8.75016 5C8.75016 3.00833 9.6835 1.23333 11.1418 0.0916666C11.0502 0.075 10.9585 0.0583333 10.8668 0.05C10.8252 0.0416666 10.7835 0.0333333 10.7335 0.0333333C10.6585 0.025 10.5918 0.025 10.5168 0.025L10.3168 0.0166667C10.2168 0.00833333 10.1085 0 9.9585 0C7.94183 0 6.05016 0.783333 4.61683 2.21667C4.00016 2.83333 3.50016 3.575 3.15016 4.40833C2.69183 5.4 2.4585 6.45833 2.4585 7.54166C2.4585 7.66666 2.46683 7.79166 2.47516 7.91666V7.95C2.42516 8.28333 2.3085 8.59166 2.15016 8.85L0.308496 11.5167C0.0751628 11.875 -0.0415039 12.075 -0.0415039 12.3C-0.0415039 12.8667 0.425163 13.3333 0.99183 13.3333H2.5085V15.65C2.5085 16.675 3.34183 17.5 4.3585 17.5C4.5585 17.5 4.75016 17.4667 4.8835 17.425L6.66683 16.9333V19.375C6.66683 19.7167 6.95016 20 7.29183 20H14.3752C14.7168 20 15.0002 19.7167 15.0002 19.375V15.275C15.0002 14.2833 15.2752 13.275 15.7918 12.3667C16.1418 11.95 16.4418 11.4917 16.6835 11.0083C16.1502 11.1667 15.5835 11.25 15.0002 11.25Z" fill="#00B2FF"/>
<path d="M15 0C12.2425 0 10 2.2425 10 5C10 7.75749 12.2425 9.99999 15 9.99999C17.7575 9.99999 20 7.75749 20 5C20 2.2425 17.7575 0 15 0ZM14.8958 4.375H15.1042C15.9658 4.375 16.6667 5.07583 16.6667 5.9375C16.6667 6.61583 16.23 7.18833 15.625 7.40416V7.70833C15.625 8.05333 15.345 8.33333 15 8.33333C14.655 8.33333 14.375 8.05333 14.375 7.70833V7.49999H13.9583C13.6133 7.49999 13.3333 7.21999 13.3333 6.87499C13.3333 6.52999 13.6133 6.25 13.9583 6.25H15.1042C15.2767 6.25 15.4167 6.11 15.4167 5.9375C15.4167 5.765 15.2767 5.625 15.1042 5.625H14.8958C14.0342 5.625 13.3333 4.92416 13.3333 4.0625C13.3333 3.38416 13.77 2.81166 14.375 2.59583V2.29167C14.375 1.94667 14.655 1.66667 15 1.66667C15.345 1.66667 15.625 1.94667 15.625 2.29167V2.5H16.0417C16.3867 2.5 16.6667 2.78 16.6667 3.125C16.6667 3.47 16.3867 3.75 16.0417 3.75H14.8958C14.7233 3.75 14.5833 3.89 14.5833 4.0625C14.5833 4.235 14.7233 4.375 14.8958 4.375Z" fill="#00B2FF"/>
</g>
<defs>
<clipPath id="clip0_473_10495">
<rect width="20" height="20" fill="white"/>
</clipPath>
</defs>
</svg>
