<svg width="13" height="13" viewBox="0 0 13 13" fill="none" xmlns="http://www.w3.org/2000/svg">
<path d="M9.76304 0.871801C8.7672 0.290563 7.67951 0 6.50027 0C5.32087 0 4.23323 0.290563 3.23736 0.871801C2.24149 1.45306 1.45293 2.24163 0.871801 3.23736C0.290563 4.23334 0 5.32098 0 6.50027C0 7.81499 0.358153 9.0084 1.07486 10.0804C1.79144 11.1526 2.73085 11.9453 3.89335 12.4587C3.87068 11.8549 3.90738 11.3557 4.00339 10.9607L4.84127 7.42278C4.70019 7.14636 4.6297 6.80221 4.6297 6.39021C4.6297 5.91061 4.75101 5.50988 4.99362 5.1884C5.2361 4.86666 5.53244 4.70578 5.88233 4.70578C6.16436 4.70578 6.3817 4.79878 6.53408 4.98521C6.68643 5.17134 6.76268 5.40559 6.76268 5.68764C6.76268 5.86267 6.73011 6.07574 6.66539 6.32673C6.60041 6.57785 6.51578 6.86839 6.41151 7.19853C6.30711 7.52853 6.23238 7.79229 6.18717 7.98985C6.10804 8.33398 6.17303 8.62878 6.38184 8.87429C6.59049 9.11978 6.86706 9.24244 7.21132 9.24244C7.81512 9.24244 8.31025 8.90682 8.69682 8.23532C9.0833 7.56382 9.27656 6.74847 9.27656 5.78913C9.27656 5.05004 9.03823 4.44898 8.56139 3.98631C8.08456 3.52375 7.42002 3.29227 6.56815 3.29227C5.61444 3.29227 4.84278 3.5985 4.25328 4.21052C3.66364 4.82282 3.36882 5.55504 3.36882 6.4068C3.36882 6.91468 3.5128 7.34082 3.80046 7.68499C3.89636 7.79788 3.9274 7.91908 3.8936 8.04876C3.88219 8.0827 3.85968 8.1673 3.82587 8.30262C3.79209 8.43795 3.76942 8.52561 3.75815 8.56501C3.71294 8.74569 3.6058 8.80215 3.43641 8.73429C3.00189 8.55374 2.67175 8.24066 2.44617 7.79485C2.22046 7.34917 2.10766 6.83292 2.10766 6.24605C2.10766 5.86799 2.16825 5.4899 2.28955 5.11183C2.41086 4.73377 2.59976 4.36848 2.85667 4.01567C3.11329 3.66328 3.42089 3.35131 3.77932 3.08052C4.1376 2.8096 4.57352 2.59255 5.08703 2.42864C5.60043 2.26515 6.15352 2.18329 6.746 2.18329C7.54723 2.18329 8.2667 2.36105 8.90426 2.71644C9.54182 3.07199 10.0286 3.53194 10.3643 4.09614C10.6999 4.66037 10.868 5.26401 10.868 5.90749C10.868 6.75388 10.7211 7.51567 10.4278 8.19283C10.1344 8.86998 9.71963 9.40175 9.18356 9.78823C8.64735 10.1747 8.03794 10.368 7.3553 10.368C7.01104 10.368 6.68941 10.2876 6.39037 10.1267C6.09114 9.96583 5.88522 9.77543 5.77243 9.55533C5.51854 10.5539 5.36619 11.1495 5.31537 11.3412C5.20807 11.7419 4.98799 12.2044 4.65511 12.7292C5.25889 12.9098 5.87393 13 6.50027 13C7.67954 13 8.7672 12.7095 9.76304 12.1284C10.7589 11.5471 11.5475 10.7585 12.1287 9.76253C12.7098 8.76663 13.0006 7.67913 13.0006 6.49971C13.0006 5.32031 12.7098 4.23283 12.1287 3.23682C11.5476 2.24163 10.7589 1.45306 9.76304 0.871801Z" fill="#00B2FF"/>
</svg>
