<svg width="13" height="13" viewBox="0 0 13 13" fill="none" xmlns="http://www.w3.org/2000/svg">
<path d="M12.8855 2.64307L8.94287 6.50022L12.8855 10.3574C12.9568 10.2107 13 10.0485 13 9.87538V3.12506C13 2.95188 12.9568 2.78975 12.8855 2.64307Z" fill="#00B2FF"/>
<path d="M11.8574 2H1.14252C0.96664 2 0.801982 2.04258 0.653015 2.11276L5.69212 7.04956C6.13767 7.48828 6.86222 7.48828 7.30777 7.04956L12.3469 2.11276C12.1979 2.04258 12.0332 2 11.8574 2Z" fill="#00B2FF"/>
<path d="M0.114512 2.64307C0.0432402 2.78975 0 2.95188 0 3.12506V9.87538C0 10.0486 0.0432402 10.2107 0.114512 10.3574L4.05714 6.50022L0.114512 2.64307Z" fill="#00B2FF"/>
<path d="M8.40113 7.03027L7.84322 7.57962C7.10082 8.31063 5.89281 8.31063 5.15042 7.57962L4.59253 7.03027L0.649902 10.8874C0.798869 10.9576 0.963527 11.0002 1.13941 11.0002H11.8543C12.0301 11.0002 12.1948 10.9576 12.3438 10.8874L8.40113 7.03027Z" fill="#00B2FF"/>
</svg>
