<svg width="25" height="25" viewBox="0 0 25 25" fill="none" xmlns="http://www.w3.org/2000/svg">
<path d="M17.0188 2.00098H3.39675C3.17774 2.00098 3 2.17872 3 2.39773V21.6488C3 21.867 3.17774 22.0456 3.39675 22.0456H17.0188C17.2378 22.0456 17.4155 21.867 17.4155 21.6488V2.39773C17.4155 2.17793 17.2378 2.00098 17.0188 2.00098Z" fill="#00B2FF"/>
<path d="M21.6139 21.2519H21.2504V2.7935H21.6139C21.8329 2.7935 22.0106 2.61576 22.0106 2.39675C22.0106 2.17774 21.8329 2 21.6139 2H20.0935C19.8745 2 19.6968 2.17774 19.6968 2.39675C19.6968 2.61576 19.8745 2.7935 20.0935 2.7935H20.457V21.2519H20.0935C19.8745 21.2519 19.6968 21.4304 19.6968 21.6486C19.6968 21.8669 19.8745 22.0454 20.0935 22.0454H21.6139C21.8329 22.0454 22.0106 21.8669 22.0106 21.6486C22.0106 21.4304 21.8329 21.2519 21.6139 21.2519Z" fill="#00B2FF"/>
</svg>
