<svg width="60" height="60" viewBox="0 0 60 60" fill="none" xmlns="http://www.w3.org/2000/svg">
<path d="M29.5893 35.0202C28.6287 35.0202 27.7748 34.6988 27.2412 33.9488C26.6008 33.3059 26.1738 32.3417 26.1738 31.5917C26.1738 30.6274 26.494 29.7702 27.2412 29.2345C27.8815 28.5917 28.8421 28.1631 29.5893 28.1631C30.5499 28.1631 31.4037 28.4845 31.9374 29.2345C32.5778 29.8774 33.0047 30.8417 33.0047 31.5917C33.0047 32.5559 32.6845 33.4131 31.9374 33.9488C31.4037 34.6988 30.5499 35.0202 29.5893 35.0202ZM29.5893 29.8774C29.1623 29.8774 28.7354 30.0917 28.3085 30.4131C27.9883 30.7345 27.7748 31.2702 27.7748 31.6988C27.7748 32.1274 27.9883 32.5559 28.3085 32.9845C28.6287 33.3059 29.1623 33.5202 29.5893 33.5202C30.0162 33.5202 30.4431 33.3059 30.8701 32.9845C31.1902 32.6631 31.4037 32.1274 31.4037 31.6988C31.4037 31.2702 31.1902 30.7345 30.8701 30.4131C30.5499 29.9845 30.1229 29.8774 29.5893 29.8774Z" fill="white"/>
<path d="M0.804598 60C0.45977 59.8846 0 59.4231 0 59.1923V43.7308C0 43.3846 0.229885 43.1538 0.574713 42.9231L11.4943 38.6538V34.5L10.3448 35.1923C9.77011 35.5385 9.42529 35.6538 8.96552 35.6538C8.73563 35.6538 8.50575 35.6538 8.27586 35.5385C7.58621 35.3077 7.01149 34.8462 6.55172 34.3846C5.74713 33.1154 6.2069 31.6154 7.35632 30.6923L15.0575 25.9615V25.7308C14.9425 25.3846 14.8276 25.0385 14.7126 24.8077C14.5977 24.4615 14.4828 24.1154 14.3678 23.8846V23.7692V23.6538H10.6897C10.3448 23.6538 9.88506 23.1923 9.88506 22.9615V17.1923C9.88506 16.8462 10.3448 16.3846 10.6897 16.3846H14.4828V16.1538C14.8276 14.8846 15.2874 13.5 16.2069 12V11.7692L13.5632 9C13.3333 8.76923 13.3333 8.65385 13.3333 8.42308C13.3333 8.19231 13.4483 7.96154 13.5632 7.73077L17.7011 3.57692C17.931 3.34615 18.046 3.34615 18.2759 3.34615C18.5057 3.34615 18.7356 3.46154 18.9655 3.57692L21.6092 6.46154H21.8391C23.3333 5.65385 24.7126 5.07692 25.977 4.73077H26.2069V0.692308C26.2069 0.346154 26.6667 0 26.8966 0H32.7586C33.1034 0 33.5632 0.461538 33.5632 0.692308V4.61538H33.6782C35.1724 5.07692 36.7816 5.65385 38.046 6.46154H38.2759L41.0345 3.80769C41.2644 3.57692 41.3793 3.57692 41.6092 3.57692C41.8391 3.57692 42.069 3.69231 42.2988 3.80769L46.4368 7.96154C46.6667 8.19231 46.6667 8.30769 46.6667 8.53846C46.6667 8.76923 46.5517 9 46.4368 9.23077L43.6782 11.7692V12C44.4828 13.5 45.0575 14.8846 45.4023 16.1538V16.3846H49.1954C49.5402 16.3846 50 16.8462 50 17.0769V23.0769C50 23.4231 49.5402 23.7692 49.1954 23.7692H45.4023V24C45.2874 24.2308 45.2874 24.3462 45.1724 24.5769C45.0575 25.0385 44.9425 25.3846 44.7126 25.7308V25.9615L52.5287 30.8077C53.5632 31.5 54.023 33.1154 53.3333 34.2692C52.8736 34.9615 52.069 35.6538 51.0345 35.6538C50.5747 35.6538 50.1149 35.5385 49.6552 35.3077L48.6207 34.6154V38.7692L59.5402 43.0385C59.8851 43.1538 60 43.5 60 43.7308V59.1923C60 59.5385 59.5402 60 59.3103 60H0.804598ZM36.6667 44.6538C37.0115 44.6538 37.3563 45.1154 37.3563 45.3462V58.3846H46.6667V33.8077L29.8851 22.9615L12.9885 33.3462L12.7586 58.3846H22.069V45.4615C22.069 45.1154 22.5287 44.7692 22.8736 44.7692H36.6667V44.6538ZM23.6782 58.5H35.8621V46.2692H23.6782V58.5ZM48.3908 58.3846H58.1609V44.1923L48.3908 40.3846V58.3846ZM1.49425 44.1923V58.3846H11.2644V40.2692L1.49425 44.1923ZM29.7701 21.3462C30 21.3462 30.1149 21.3462 30.1149 21.4615L50.2299 33.9231C50.3448 34.0385 50.5747 34.0385 50.9195 34.0385C51.3793 34.0385 51.6092 33.6923 51.8391 33.5769C52.069 33.3462 52.069 33 51.954 32.8846C51.8391 32.5385 51.7241 32.3077 51.3793 32.1923L30.4598 18.9231C30.2299 18.8077 30 18.8077 29.7701 18.8077C29.5402 18.8077 29.4253 18.8077 29.1954 18.9231L8.27586 32.0769C8.16092 32.1923 8.04598 32.3077 7.93103 32.7692C7.81609 33 7.93103 33.4615 8.04598 33.5769C8.27586 33.9231 8.62069 34.1538 8.96552 34.1538C9.1954 34.1538 9.31034 34.1538 9.54023 34.0385L29.5402 21.3462H29.7701ZM29.7701 10.3846C30.5747 10.3846 31.2644 10.5 32.1839 10.7308C34.5977 11.4231 36.7816 12.9231 37.931 15.2308C39.1954 17.4231 39.6552 20.0769 38.9655 22.3846V22.5L42.8736 25.0385L43.1034 24.8077C43.3333 24.2308 43.5632 23.4231 43.6782 22.6154C43.7931 22.1538 44.1379 21.9231 44.4828 21.9231H48.2759V17.5385H44.4828C44.1379 17.5385 43.7931 17.3077 43.6782 16.8462C43.3333 15 42.6437 13.2692 41.4943 11.7692C41.3793 11.6538 41.3793 11.4231 41.3793 11.1923C41.3793 11.0769 41.3793 10.8462 41.6092 10.7308L44.2529 8.07692L41.3793 5.30769L38.7356 8.07692C38.5057 8.30769 38.3908 8.30769 38.1609 8.30769C37.931 8.30769 37.8161 8.30769 37.8161 8.19231C36.4368 7.26923 34.8276 6.46154 32.6437 6C32.2989 5.88461 32.1839 5.53846 32.1839 5.30769V1.5H27.8161V5.30769C27.8161 5.65385 27.5862 6 27.1264 6C25.2874 6.34615 23.5632 7.03846 22.069 8.19231C21.954 8.30769 21.7241 8.30769 21.7241 8.30769C21.4943 8.30769 21.2644 8.19231 21.0345 8.07692L18.5057 5.42308L15.4023 8.42308L18.046 11.0769C18.2759 11.3077 18.3908 11.7692 18.1609 12C17.2414 13.3846 16.5517 15 16.092 17.0769C15.977 17.5385 15.6322 17.7692 15.2874 17.7692H11.4943V22.1538H15.2874C15.6322 22.1538 15.977 22.3846 16.092 22.8462C16.2069 23.5385 16.4368 24.3462 16.6667 24.9231L16.7816 25.0385L16.8966 25.1538L20.8046 22.7308V22.5C20.3448 20.8846 20.3448 19.1538 20.8046 17.6538C21.7241 13.3846 25.5172 10.3846 29.7701 10.3846ZM29.6552 17.1923C30.2299 17.1923 30.5747 17.3077 30.9195 17.6538L37.4713 21.6923V21.2308C37.7011 20.3077 37.7011 19.3846 37.4713 18.4615C37.0115 14.6538 33.6782 11.7692 29.7701 11.7692C29.3103 11.7692 28.8506 11.7692 28.3908 11.8846C26.3218 12.2308 24.5977 13.3846 23.1034 15.2308C21.8391 17.0769 21.3793 19.1538 21.8391 21.2308V21.6923L28.3908 17.6538C28.9655 17.4231 29.3103 17.1923 29.6552 17.1923Z" fill="#00B2FF"/>
</svg>
