<svg width="121" height="8" viewBox="0 0 121 8" fill="none" xmlns="http://www.w3.org/2000/svg">
<path opacity="0.5" d="M120.354 4.35355C120.549 4.15829 120.549 3.84171 120.354 3.64645L117.172 0.464466C116.976 0.269204 116.66 0.269204 116.464 0.464466C116.269 0.659728 116.269 0.976311 116.464 1.17157L119.293 4L116.464 6.82843C116.269 7.02369 116.269 7.34027 116.464 7.53553C116.66 7.7308 116.976 7.7308 117.172 7.53553L120.354 4.35355ZM120 3.5H118V4.5H120V3.5ZM114 3.5L110 3.5V4.5H114V3.5ZM106 3.5L102 3.5V4.5H106V3.5ZM98 3.5L94 3.5V4.5L98 4.5V3.5ZM90 3.5L86 3.5V4.5L90 4.5V3.5ZM82 3.5L78 3.5V4.5L82 4.5V3.5ZM74 3.5L70 3.5V4.5L74 4.5V3.5ZM66 3.5L62 3.5V4.5L66 4.5V3.5ZM58 3.5L54 3.5V4.5H58V3.5ZM50 3.5L46 3.5V4.5H50V3.5ZM42 3.5L38 3.5V4.5H42V3.5ZM34 3.5L30 3.5V4.5H34V3.5ZM26 3.5L22 3.5V4.5L26 4.5V3.5ZM18 3.5L14 3.5V4.5L18 4.5V3.5ZM10 3.5L6.00001 3.5V4.5L10 4.5V3.5ZM2 3.5L7.15256e-06 3.5V4.5L2 4.5V3.5Z" fill="#00B2FF"/>
</svg>
