<svg width="60" height="60" viewBox="0 0 60 60" fill="none" xmlns="http://www.w3.org/2000/svg">
<path d="M0.75 60C0.375 60 0 59.625 0 59.25V0.75C0 0.5625 0 0.375 0.1875 0.1875C0.375 0 0.5625 0 0.75 0C0.9375 0 1.125 0 1.3125 0.1875L42.1875 41.0625V0.75C42.1875 0.375 42.5625 0 43.125 0H51.1875C51.5625 0 51.9375 0.375 51.9375 0.75V50.625L59.8125 58.5C60 58.6875 60 58.875 60 59.0625C60 59.4375 59.625 59.8125 59.25 59.8125H0.75V60ZM49.875 58.3125H57.1875L1.6875 2.8125V10.125H4.6875V11.8125H1.6875V16.3125H4.6875V18H1.6875V22.5H4.6875V24.1875H1.6875V28.125H4.6875V29.8125H1.6875V34.3125H4.6875V36H1.6875V40.5H4.6875V42.1875H1.6875V46.6875H4.6875V48.375H1.6875V52.875H4.6875V54.5625H1.6875V59.0625H6.1875V56.0625H7.875V59.0625H12.375V56.0625H14.0625V59.0625H18.5625V56.0625H20.25V59.0625H24.75V56.0625H26.4375V59.0625H30.9375V56.0625H31.875V59.0625H36.375V56.0625H38.0625V59.0625H42.5625V56.0625H44.25V59.0625H48.75V56.0625H50.4375V58.3125H49.875ZM50.25 49.125V45.75H47.25V44.0625H50.25V41.625H47.25V39.9375H50.25V37.5H47.25V35.8125H50.25V33.75H47.25V32.0625H50.25V29.625H47.25V28.125H50.25V25.6875H47.25V24H50.25V21.5625H47.25V19.875H50.25V17.625H47.25V16.125H50.25V13.6875H47.25V12H50.25V9.75H47.25V8.0625H50.25V5.625H47.25V3.9375H50.25V1.6875H43.875V42.75L47.25 46.3125L50.25 49.125ZM8.8125 51.9375C8.4375 51.9375 8.0625 51.5625 8.0625 51.1875V18.9375C8.0625 18.75 8.0625 18.5625 8.25 18.375C8.4375 18.1875 8.625 18.1875 8.8125 18.1875C9 18.1875 9.1875 18.1875 9.375 18.375L40.6875 50.625C40.875 50.8125 40.875 51 40.875 51.1875C40.875 51.5625 40.5 51.9375 40.125 51.9375H8.8125ZM9.75 50.25H38.25L9.75 21V50.25ZM57.1875 51C55.6875 51 54.375 49.6875 54.375 48.1875V7.875V7.6875L56.4375 0.5625C56.4375 0.375 56.8125 0 57 0H57.1875C57.5625 0 57.9375 0.1875 57.9375 0.5625L60 7.6875V7.875V48.1875C60 49.6875 58.6875 51 57.1875 51ZM56.0625 48.1875C56.0625 48.9375 56.625 49.3125 57.1875 49.3125C57.75 49.3125 58.3125 48.75 58.3125 48.1875V8.8125H55.875V48.1875H56.0625ZM56.25 7.125H58.125L57.1875 3.75L56.25 7.125Z" fill="#00B2FF"/>
<path d="M30.9512 15.8584C29.9668 15.8584 29.0918 15.5303 28.5449 14.7646C27.8887 14.1084 27.4512 13.124 27.4512 12.3584C27.4512 11.374 27.7793 10.499 28.5449 9.95215C29.2012 9.2959 30.1855 8.8584 30.9512 8.8584C31.9355 8.8584 32.8105 9.18652 33.3574 9.95215C34.0137 10.6084 34.4512 11.5928 34.4512 12.3584C34.4512 13.3428 34.123 14.2178 33.3574 14.7646C32.8105 15.5303 31.9355 15.8584 30.9512 15.8584ZM30.9512 10.6084C30.5137 10.6084 30.0762 10.8272 29.6387 11.1553C29.3105 11.4834 29.0918 12.0303 29.0918 12.4678C29.0918 12.9053 29.3105 13.3428 29.6387 13.7803C29.9668 14.1084 30.5137 14.3271 30.9512 14.3271C31.3887 14.3271 31.8262 14.1084 32.2637 13.7803C32.5918 13.4521 32.8105 12.9053 32.8105 12.4678C32.8105 12.0303 32.5918 11.4834 32.2637 11.1553C31.9355 10.7178 31.498 10.6084 30.9512 10.6084Z" fill="white"/>
</svg>
