<svg width="15" height="15" viewBox="0 0 15 15" fill="none" xmlns="http://www.w3.org/2000/svg">
<path d="M7.21289 0C4.06289 0 1.5 2.56289 1.5 5.71289C1.5 6.95947 1.89375 8.14395 2.63965 9.1377L6.86074 14.8228C6.87129 14.8366 6.8874 14.8418 6.89912 14.8541C7.11006 15.08 7.41445 15.0232 7.56475 14.8228C8.78027 13.2009 11.0083 10.1719 11.8649 9.0293C11.8649 9.0293 11.8652 9.02842 11.8655 9.02783L11.8708 9.0208C12.561 8.05107 12.9258 6.90732 12.9258 5.71289C12.9258 2.56289 10.3629 0 7.21289 0ZM7.21289 8.79492C5.51689 8.79492 4.13086 7.40889 4.13086 5.71289C4.13086 4.01689 5.51689 2.63086 7.21289 2.63086C8.90889 2.63086 10.2949 4.01689 10.2949 5.71289C10.2949 7.40889 8.90889 8.79492 7.21289 8.79492Z" fill="#00B2FF"/>
</svg>
