<svg width="156" height="30" viewBox="0 0 156 30" fill="none" xmlns="http://www.w3.org/2000/svg">
<path d="M0.414551 1.91477V3.82954L29.4078 3.85081L58.3906 3.88273L58.4528 13.5629C58.515 23.8283 58.5046 23.5943 59.0019 24.9984C59.6859 26.8919 61.147 28.3918 63.1572 29.2428C64.4421 29.7959 65.1468 29.9236 67.1467 29.9661C69.2398 30.0194 70.0273 29.9024 71.5505 29.2854C73.8302 28.3599 75.343 26.7323 76.0166 24.4772C76.4311 23.1049 76.4725 21.9773 76.4725 12.7332V3.82954H116.004H155.536V1.91477V0H114.056H72.566L72.5038 2.78705C72.4624 4.32951 72.4313 9.41429 72.4313 14.0948C72.4209 24.2218 72.4727 23.7964 71.2604 24.9665C70.307 25.892 68.991 26.3813 67.4367 26.3813C65.8307 26.3813 64.4525 25.8601 63.4992 24.892C63.0329 24.4027 62.8671 24.1474 62.6805 23.5517L62.4319 22.8177L62.4008 11.4035L62.3697 0H31.3973H0.414551V1.91477Z" fill="white"/>
<path d="M38.6505 8.36075C38.3914 8.38203 37.8319 8.47777 37.4071 8.5735C34.6611 9.15858 32.5887 10.5415 30.6821 13.0413C30.6303 13.1051 30.4023 13.5093 30.164 13.9561C28.4128 17.2432 28.4128 21.4769 30.164 24.6363C31.0965 26.3171 32.7752 27.9659 34.3606 28.7637C35.2622 29.2318 36.4227 29.6147 37.5625 29.8381C38.7956 30.0721 41.6141 30.0508 43.0026 29.7849C44.7331 29.4551 46.2771 28.9871 47.3444 28.4764L47.821 28.2424V23.5087V18.775H43.987H40.1531V20.5833V22.3918L42.0182 22.4556C43.0441 22.4875 43.8937 22.5194 43.9145 22.53C43.9248 22.5407 43.9248 23.2534 43.9145 24.115L43.8834 25.6894L43.4689 25.8277C41.8835 26.3702 39.7282 26.5297 38.3294 26.2106C36.5885 25.8171 34.9409 24.7002 34.0704 23.3279C33.4177 22.296 33.2519 21.8706 33.0032 20.6578C32.3608 17.4453 33.9565 14.1263 36.8371 12.7115C37.977 12.1584 38.9614 11.9775 40.5054 12.0627C41.811 12.1264 42.3188 12.2222 43.6762 12.6583C44.443 12.903 46.1009 13.6902 46.7537 14.105C47.4687 14.5731 47.4583 14.605 47.4583 12.286V10.2117L46.8678 9.93512C45.9351 9.52025 43.6554 8.75435 42.7851 8.5735C41.9871 8.4033 39.5106 8.28629 38.6505 8.36075Z" fill="white"/>
<path d="M7.40892 11.8305C6.6214 13.724 5.87533 15.5005 5.75098 15.7983C5.62664 16.0856 5.36758 16.7131 5.18106 17.1811C4.99455 17.6493 4.79766 18.0747 4.75622 18.1386C4.70441 18.1917 4.66295 18.2982 4.66295 18.3726C4.66295 18.4471 4.54898 18.7556 4.40391 19.0641C4.2692 19.3725 3.37806 21.4894 2.4351 23.7765C1.48178 26.0529 0.621728 28.1166 0.518106 28.3506C0.19688 29.0741 0 29.5953 0 29.691C0 29.7549 0.88078 29.7761 2.03098 29.7654L4.06195 29.7335L5.0878 27.2337C5.64736 25.8615 6.20692 24.5318 6.3209 24.2765L6.52814 23.8297L10.331 23.851L14.1235 23.8829L14.5173 24.787C15.108 26.1594 15.3463 26.6912 15.6572 27.3933C15.8127 27.7443 16.1027 28.4145 16.31 28.8825L16.6727 29.7335L18.6933 29.7654C20.0921 29.7868 20.7243 29.7549 20.7243 29.6804C20.7243 29.6165 20.631 29.3612 20.5274 29.1165C20.4134 28.872 20.0196 27.9464 19.6363 27.0742C19.2528 26.1913 18.828 25.2233 18.6933 24.9147C18.5586 24.6063 18.4445 24.3404 18.4445 24.3084C18.4445 24.2871 18.2788 23.8936 18.0715 23.4361C17.6156 22.4149 17.5431 22.2553 16.9421 20.8512C16.4033 19.6066 16.1753 19.1066 15.7297 18.0854C15.5536 17.7025 15.0769 16.6068 14.6624 15.6388C14.2479 14.6707 13.7816 13.5963 13.6262 13.2453C13.4708 12.8942 13.2324 12.3411 13.0977 12.022C12.9527 11.7028 12.5486 10.7667 12.1962 9.94762L11.5434 8.45835L10.1963 8.42644L8.8389 8.39453L7.40892 11.8305ZM11.1807 17.2344C11.6574 18.3194 12.103 19.3406 12.1859 19.5108C12.476 20.1172 12.5071 20.1065 10.2585 20.1065C8.68347 20.1065 8.18608 20.0746 8.18608 19.9789C8.18608 19.8087 9.94764 15.426 10.0824 15.2346C10.1445 15.16 10.2171 15.1388 10.2585 15.1813C10.3 15.2239 10.7144 16.1494 11.1807 17.2344Z" fill="white"/>
<path d="M90.7307 8.63735C90.6478 8.77564 90.3784 9.3607 90.1504 9.94578C89.9121 10.5308 89.6323 11.201 89.5287 11.435C89.4251 11.669 88.8447 13.052 88.2438 14.52C87.6324 15.9773 87.0729 17.3177 86.9899 17.4985C86.9174 17.6687 86.6584 18.2963 86.4201 18.8814C85.9952 19.9132 85.7258 20.5515 85.4356 21.2216C85.3631 21.3919 85.0522 22.1364 84.7621 22.8704C84.4615 23.6044 84.1404 24.3917 84.0368 24.6257C83.5393 25.7533 81.9644 29.6041 81.9644 29.6892C81.9644 29.753 82.7933 29.7743 83.9953 29.7636L86.0263 29.7318L86.7413 27.9765C87.1351 27.0085 87.5495 26.0193 87.6635 25.7746C87.7775 25.5192 87.8707 25.2958 87.8707 25.2532C87.8707 25.2214 88.0055 24.881 88.1816 24.5087L88.4821 23.8279L92.2746 23.8491L96.0671 23.881L96.7407 25.4235C97.1137 26.2745 97.4867 27.1362 97.58 27.3383C97.6733 27.5404 97.9531 28.168 98.1914 28.7212L98.6266 29.7318L100.658 29.7636C101.891 29.7743 102.689 29.753 102.689 29.6892C102.689 29.636 102.523 29.2211 102.326 28.785C102.129 28.3382 101.963 27.9553 101.963 27.9339C101.963 27.9021 101.808 27.5404 101.611 27.1043C101.424 26.6787 101.165 26.1149 101.051 25.849C100.813 25.3065 99.5488 22.4024 99.269 21.7535C98.523 20.0303 98.2743 19.4452 98.0256 18.8814C97.8702 18.5304 97.5904 17.8815 97.4039 17.4452C97.2173 17.0091 96.9065 16.2964 96.72 15.8709C96.5231 15.4348 96.3677 15.0624 96.3677 15.0412C96.3677 15.0093 96.1604 14.5305 95.9013 13.9667C95.6424 13.4136 95.4351 12.935 95.4351 12.9243C95.4351 12.9031 95.3004 12.5839 95.1346 12.2116C94.9688 11.8393 94.6475 11.084 94.3989 10.5308C94.1606 9.97769 93.8497 9.26497 93.7046 8.95647L93.4456 8.40332H92.1607C90.9483 8.40332 90.8758 8.41395 90.7307 8.63735ZM92.3265 15.3178C92.3265 15.371 92.4819 15.7539 92.6788 16.19C93.6424 18.3495 94.2953 19.8813 94.2953 19.9983C94.2953 20.0622 93.4663 20.1047 92.2228 20.1047C90.5338 20.1047 90.1504 20.0727 90.1504 19.9557C90.1504 19.8068 90.337 19.2856 90.6789 18.5409C90.7825 18.2857 90.8757 18.0623 90.8757 18.0197C90.8757 17.9878 90.9897 17.7006 91.1348 17.3815C91.2798 17.0623 91.3939 16.7751 91.3939 16.7326C91.3939 16.6368 91.943 15.3815 92.0466 15.2433C92.1503 15.105 92.3265 15.1582 92.3265 15.3178Z" fill="white"/>
<path d="M111.6 19.1888V29.7839H113.568H115.537V25.4119V21.0291L116.242 21.0824C117.112 21.1461 117.569 21.3695 118.304 22.0609C119.092 22.7949 119.828 23.7629 120.656 25.1565C121.05 25.7948 121.859 27.1032 122.47 28.0499L123.569 29.7733L125.931 29.7839C127.227 29.7839 128.283 29.7519 128.283 29.72C128.283 29.6775 127.879 29.0925 127.381 28.4116C126.884 27.7308 126.066 26.5074 125.558 25.6884C123.444 22.2737 122.533 20.9652 121.734 20.1888C121.579 20.0398 121.444 19.8697 121.444 19.8164C121.444 19.7739 121.6 19.625 121.797 19.4867C122.719 18.8378 123.33 17.9974 123.775 16.7422C124.003 16.1145 124.045 15.8273 124.045 14.7316C124.045 13.1679 123.797 12.2957 123.05 11.2107C122.314 10.1575 121.372 9.49794 119.786 8.92351C119.144 8.68948 118.947 8.67885 115.362 8.6363L111.6 8.59375V19.1888ZM117.454 12.2424C117.962 12.3062 118.584 12.4552 118.833 12.5829C120.284 13.2744 120.501 15.5295 119.226 16.6783C118.719 17.1251 118.284 17.2421 116.812 17.306L115.537 17.3592V14.8167C115.537 13.4126 115.568 12.2318 115.61 12.1999C115.704 12.0936 116.398 12.1148 117.454 12.2424Z" fill="white"/>
<path d="M136.883 19.1888V29.7839H141.474C146.375 29.7839 147.287 29.72 148.623 29.2946C152.312 28.1031 154.809 25.4331 155.763 21.6674C156.033 20.6249 156.084 17.9974 155.856 17.0187C154.986 13.2318 152.726 10.5298 149.421 9.3171C149.162 9.22137 148.509 9.04052 147.971 8.91288C147.048 8.70012 146.665 8.67885 141.94 8.6363L136.883 8.59375V19.1888ZM147.142 12.5616C149.473 13.2211 151.059 14.7848 151.825 17.1783C151.909 17.4442 151.96 18.1463 151.96 19.0931C151.96 20.3589 151.919 20.6887 151.722 21.3164C151.059 23.3694 149.65 24.9119 147.898 25.5182C146.54 25.9862 145.846 26.0713 143.298 26.0394L140.873 26.0075L140.841 19.2527C140.832 15.5402 140.841 12.4339 140.873 12.3488C140.966 12.1041 146.157 12.2743 147.142 12.5616Z" fill="white"/>
</svg>
