<svg width="30" height="30" viewBox="0 0 30 30" fill="none" xmlns="http://www.w3.org/2000/svg">
<g clip-path="url(#clip0_174_1627)">
<path d="M10.4389 9.87098C10.4389 9.50913 10.4389 8.40786 8.62104 5.43045C7.76729 4.032 6.92641 2.89294 6.89101 2.84513L6.2194 1.9375L5.54778 2.84513C5.51238 2.89294 4.67156 4.03206 3.81776 5.43045C2 8.40786 2 9.50913 2 9.87098C2 12.2855 3.89279 14.2498 6.2194 14.2498C8.54601 14.2498 10.4389 12.2855 10.4389 9.87098Z" fill="#00B2FF"/>
<path d="M25.6421 2.80574C25.0156 1.77958 24.3979 0.942784 24.3718 0.90763L23.7002 0L23.0286 0.90763C23.0026 0.942784 22.3849 1.77958 21.7584 2.80574C21.1754 3.76059 20.4004 5.14755 20.4004 6.16375C20.4004 8.05207 21.8807 9.58826 23.7002 9.58826C25.5197 9.58826 27 8.05201 27 6.16375C27 5.14749 26.225 3.76059 25.6421 2.80574Z" fill="#00B2FF"/>
<path d="M16.5237 8.87443L15.8521 7.9668L15.1804 8.87443C15.1116 8.96753 13.4745 11.1852 11.8097 13.9121C9.51472 17.6711 8.35107 20.4648 8.35107 22.2157C8.35107 26.508 11.716 30.0002 15.8521 30.0002C19.9882 30.0002 23.3531 26.508 23.3531 22.2157C23.3531 20.4648 22.1895 17.6711 19.8945 13.9121C18.2296 11.1852 16.5926 8.96753 16.5237 8.87443Z" fill="#00B2FF"/>
</g>
<defs>
<clipPath id="clip0_174_1627">
<rect width="30" height="30" fill="white"/>
</clipPath>
</defs>
</svg>
