<svg width="30" height="30" viewBox="0 0 30 30" fill="none" xmlns="http://www.w3.org/2000/svg">
<path d="M15.8354 24.0121C15.8354 25.2461 14.8791 26.25 13.7037 26.25C12.5283 26.25 11.572 25.2461 11.572 24.0121C11.572 23.1245 12.0667 22.356 12.7819 21.9945V9.85887C12.7819 9.32438 13.1946 8.89113 13.7037 8.89113C14.2128 8.89113 14.6255 9.32438 14.6255 9.85887V21.9945C15.3407 22.356 15.8354 23.1245 15.8354 24.0121ZM22 4.35484C22 4.88934 21.5873 5.32258 21.0782 5.32258H17.5638V9.43548H19.9259C20.4351 9.43548 20.8477 9.86873 20.8477 10.4032C20.8477 10.9377 20.4351 11.371 19.9259 11.371H17.5638V15.4839H18.7737C19.2828 15.4839 19.6955 15.9171 19.6955 16.4516C19.6955 16.9861 19.2828 17.4194 18.7737 17.4194H17.5638V19.6034C18.7409 20.7358 19.4074 22.3169 19.4074 24.0121C19.4074 27.3139 16.8487 30 13.7037 30C10.5587 30 8 27.3139 8 24.0121C8 22.317 8.66647 20.7358 9.84362 19.6034V4.05242C9.84362 1.8179 11.5752 0 13.7037 0C15.6163 0 17.2076 1.46812 17.5109 3.3871H21.0782C21.5873 3.3871 22 3.82034 22 4.35484ZM17.5638 24.0121C17.5638 22.7541 17.0213 21.5888 16.0754 20.8149C15.8512 20.6316 15.7202 20.3499 15.7202 20.0516V4.05242C15.7202 2.88514 14.8156 1.93548 13.7037 1.93548C12.5918 1.93548 11.6872 2.88514 11.6872 4.05242V20.0516C11.6872 20.35 11.5562 20.6316 11.3321 20.8149C10.3861 21.5888 9.84362 22.7541 9.84362 24.0121C9.84362 26.2466 11.5752 28.0645 13.7037 28.0645C15.8322 28.0645 17.5638 26.2466 17.5638 24.0121Z" fill="#00B2FF"/>
</svg>
