<svg width="30" height="30" viewBox="0 0 30 30" fill="none" xmlns="http://www.w3.org/2000/svg">
<g clip-path="url(#clip0_174_1546)">
<path fill-rule="evenodd" clip-rule="evenodd" d="M27.4741 7.03004C26.997 5.40454 25.9967 3.97978 24.6267 2.97454C21.8072 0.774122 19.1922 -0.136187 16.1439 0.0163322C14.4445 0.134574 12.756 0.375511 11.0917 0.737267C8.88749 1.17854 7.30866 1.9256 6.26516 3.02113C5.41327 3.92523 4.75589 4.9928 4.33337 6.15852C4.14947 6.6865 3.99979 7.22568 3.88528 7.77271L3.83951 7.96812C3.71181 8.45181 3.53692 8.92191 3.31726 9.37173L3.29799 9.41471C3.2018 9.62924 3.10556 9.84385 3.02274 10.0628C2.96789 10.181 2.9385 10.3093 2.9365 10.4395C2.95965 10.6038 3.16524 10.791 3.38292 10.9893L3.383 10.9893C3.8292 11.3011 4.11713 11.7905 4.17191 12.3302C4.16313 12.5859 4.09062 12.8355 3.96103 13.0566C3.28775 14.4677 2.46267 15.8021 1.50016 17.0363C1.08571 17.5393 1.00159 17.7353 1 17.8158C1.09925 17.9086 1.20522 17.9941 1.31714 18.0714C1.45887 18.1696 1.60861 18.2559 1.7647 18.3293L1.76576 18.3299C2.22637 18.5637 2.85666 18.8836 2.98227 19.5399C3.06061 19.9446 3.01001 20.3635 2.83766 20.7382C2.74559 20.9305 2.65093 21.0982 2.5684 21.2436C2.54001 21.2931 2.50897 21.3477 2.48164 21.3976C2.70306 21.5734 3.01072 21.8028 3.14013 21.8978C3.25712 21.9838 3.33411 22.1131 3.35366 22.2565C3.37316 22.3998 3.33352 22.5449 3.24375 22.6587C3.16417 22.7623 3.09507 22.8735 3.03758 22.9906C3.07142 23.0105 3.10611 23.0301 3.14047 23.0496L3.14054 23.0496L3.15274 23.0565C3.62845 23.2608 3.99084 23.6613 4.14517 24.1534C4.22281 24.5332 4.20566 24.9261 4.09522 25.2977L4.09202 25.3121C4.06832 25.4182 4.04463 25.5244 4.03054 25.6305C3.99944 25.9515 4.04391 26.2752 4.16042 26.5761C4.27553 27.0742 4.76679 27.392 5.27119 27.2946C6.83742 26.9146 8.3819 26.4508 9.89788 25.9051L9.90106 25.9041C10.4195 25.7278 10.8935 25.5627 11.2788 25.4286L11.2827 25.4272C11.7008 25.2813 12.0169 25.1717 12.1757 25.1217C14.4136 24.4231 14.8675 23.6185 14.8543 23.0665C14.8474 22.7707 15.0828 22.5252 15.3803 22.5182C15.6777 22.5113 15.9245 22.7455 15.9315 23.0414C15.963 24.3791 14.8081 25.4228 12.4992 26.1437C12.3558 26.1886 12.0797 26.2847 11.7135 26.4123L11.7133 26.4123L11.6388 26.4383C11.5147 26.4817 11.3811 26.5283 11.2401 26.5772C12.1303 27.5569 12.7802 28.7285 13.1388 30H25.4084C25.4015 29.99 25.3942 29.9801 25.3868 29.9705C25.2016 29.7339 25.0381 29.4812 24.8982 29.2155C24.6321 28.6726 24.4088 28.1099 24.2303 27.5326C23.9032 26.4368 23.6773 25.3136 23.5555 24.177C23.3419 22.3853 23.6134 20.5693 24.3418 18.917C24.7729 18.0248 25.3045 17.1843 25.9265 16.4116L25.9286 16.4087L25.9287 16.4086C26.2415 15.9894 26.5646 15.5562 26.8453 15.1162C27.5882 13.9693 27.9875 12.6357 27.9966 11.2713C28.0272 9.83978 27.8513 8.41156 27.4741 7.03004ZM26.2287 10.7159C26.1828 10.9715 25.9595 11.1575 25.6985 11.1575H24.582C24.458 11.5767 24.2892 11.9814 24.0786 12.3649L24.8686 13.1507C25.0532 13.3343 25.079 13.6231 24.9296 13.836C24.4119 14.575 23.7666 15.2169 23.0237 15.7319C22.8095 15.8803 22.5194 15.8549 22.3347 15.6715L21.5447 14.8857C21.159 15.0952 20.7519 15.2631 20.3304 15.3864V16.4973C20.3302 16.7569 20.1432 16.9789 19.8864 17.0247C18.9947 17.182 18.0822 17.182 17.1905 17.0247C16.9337 16.9789 16.7468 16.7568 16.7466 16.4973V15.3864C16.325 15.2631 15.9179 15.0953 15.5322 14.8857L14.7422 15.6715C14.5575 15.8548 14.2673 15.8802 14.0533 15.7319C13.3104 15.2169 12.6651 14.575 12.1473 13.836C11.998 13.623 12.0236 13.3342 12.2083 13.1507L12.9983 12.3649C12.7877 11.9814 12.619 11.5767 12.4949 11.1575H11.3784C11.1174 11.1575 10.8941 10.9715 10.8483 10.7159C10.6898 9.82882 10.6898 8.92085 10.8483 8.03369C10.8941 7.77816 11.1174 7.59213 11.3784 7.59213H12.4949C12.6189 7.17295 12.7877 6.76818 12.9983 6.38469L12.2083 5.59889C12.0237 5.41532 11.998 5.12651 12.1473 4.91358C12.6651 4.1746 13.3104 3.53271 14.0533 3.01767C14.2672 2.86867 14.5578 2.89415 14.7422 3.07808L15.5322 3.86388C15.9179 3.65441 16.325 3.48654 16.7466 3.3632V2.25232C16.7467 1.99287 16.9337 1.77074 17.1905 1.72498C18.0822 1.56853 18.9947 1.56853 19.8864 1.72498C20.1432 1.77074 20.3302 1.99287 20.3304 2.25232V3.36325C20.7519 3.48659 21.159 3.65441 21.5447 3.86394L22.3347 3.07814C22.5191 2.89415 22.8098 2.86867 23.0237 3.01773C23.7666 3.53277 24.4119 4.17466 24.9296 4.91364C25.079 5.12663 25.0533 5.41543 24.8686 5.59895L24.0786 6.38475C24.2892 6.76824 24.4579 7.17301 24.582 7.59219H25.6985C25.9595 7.59213 26.1828 7.77822 26.2287 8.03375C26.3872 8.92085 26.3872 9.82882 26.2287 10.7159ZM18.5386 11.7853C19.877 11.7853 20.962 10.706 20.962 9.3746C20.962 8.04319 19.877 6.96387 18.5386 6.96387C17.2002 6.96387 16.1152 8.04319 16.1152 9.3746C16.1152 10.706 17.2002 11.7853 18.5386 11.7853ZM23.6383 8.24301C23.6926 8.48869 23.9114 8.66371 24.1643 8.66365V8.66371H25.2319C25.2831 9.1365 25.2831 9.61338 25.2319 10.0862H24.1642C23.9113 10.0861 23.6925 10.2611 23.6382 10.5068C23.5091 11.0943 23.2758 11.6542 22.9493 12.1602C22.812 12.3721 22.842 12.6505 23.0213 12.8286L23.7771 13.5803C23.4777 13.9508 23.1387 14.288 22.7662 14.5858L22.0105 13.8343C21.8314 13.6562 21.5519 13.6261 21.3388 13.7621C20.8299 14.0872 20.2667 14.3195 19.6758 14.4479C19.4289 14.502 19.253 14.7196 19.253 14.9711V16.0331C18.7779 16.0839 18.2986 16.0839 17.8235 16.0331V14.9711C17.8234 14.7196 17.6475 14.502 17.4006 14.4479C16.8097 14.3196 16.2465 14.0873 15.7376 13.7621C15.5246 13.6256 15.2447 13.6557 15.066 13.8343L14.3102 14.5858C13.9377 14.288 13.5987 13.9508 13.2993 13.5803L14.0551 12.8286C14.2344 12.6505 14.2644 12.3721 14.1271 12.1603C13.8006 11.6542 13.5673 11.0943 13.4382 10.5069C13.3839 10.2612 13.1651 10.0862 12.9122 10.0862H11.8445C11.7934 9.61344 11.7934 9.13656 11.8445 8.66377H12.9122C13.1651 8.66383 13.3839 8.48881 13.4382 8.24313C13.5673 7.65568 13.8006 7.09577 14.1271 6.5897C14.2644 6.37789 14.2344 6.09945 14.0551 5.92139L13.2993 5.16964C13.5987 4.7991 13.9377 4.46196 14.3102 4.16413L15.066 4.91558C15.2447 5.09412 15.5246 5.12423 15.7376 4.98777C16.2465 4.66264 16.8097 4.43037 17.4006 4.30194C17.6475 4.24786 17.8235 4.03024 17.8235 3.77876V2.71677C18.2986 2.66603 18.7779 2.66603 19.253 2.71677V3.7787C19.253 4.03024 19.4289 4.24786 19.6759 4.30188C20.2668 4.43026 20.8299 4.66252 21.3389 4.98771C21.552 5.12365 21.8315 5.09359 22.0105 4.91552L22.7663 4.16401C23.1388 4.46184 23.4777 4.79898 23.7771 5.16952L23.0214 5.92127C22.8421 6.09934 22.812 6.37777 22.9494 6.58958C23.2759 7.09565 23.5092 7.65556 23.6383 8.24301ZM15.0376 9.37485C15.0376 11.298 16.605 12.857 18.5383 12.857C20.4707 12.8547 22.0367 11.2971 22.039 9.37485C22.039 7.45172 20.4717 5.89274 18.5383 5.89274C16.6049 5.89274 15.0376 7.45178 15.0376 9.37485Z" fill="#00B2FF"/>
</g>
<defs>
<clipPath id="clip0_174_1546">
<rect width="30" height="30" fill="white"/>
</clipPath>
</defs>
</svg>
