<svg width="30" height="30" viewBox="0 0 30 30" fill="none" xmlns="http://www.w3.org/2000/svg">
<path d="M26.3809 3.56736L14.7498 0.0370898C14.5869 -0.0123633 14.4134 -0.0123633 14.2504 0.0370898L2.61906 3.56736C2.25164 3.67887 2 4.02105 2 4.40918V17.3535C2 19.0371 2.67373 20.7606 4.00237 22.476C5.0171 23.7862 6.42103 25.1018 8.175 26.3863C11.1216 28.5442 14.0231 29.868 14.1452 29.9232C14.258 29.9744 14.3791 30 14.5001 30C14.6212 30 14.7422 29.9745 14.8551 29.9232C14.9771 29.868 17.8786 28.5442 20.8251 26.3863C22.5791 25.1018 23.983 23.7862 24.9977 22.476C26.3264 20.7606 27 19.0372 27 17.3535V4.40918C27 4.02105 26.7485 3.67887 26.3809 3.56736Z" fill="#00B2FF"/>
<path d="M18.9752 12.1445C18.9318 12.0565 18.8384 12 18.7354 12H15.5986L18.6944 7.38376C18.746 7.30677 18.7491 7.20927 18.7026 7.12952C18.656 7.04951 18.567 7 18.4707 7H14.2354C14.1351 7 14.0435 7.0535 13.9985 7.13825L10.0279 14.6383C9.98687 14.7155 9.99137 14.8075 10.0395 14.8813C10.088 14.955 10.173 15 10.2648 15H12.9868L10.0207 21.653C9.97018 21.7668 10.0152 21.8988 10.1266 21.9633C10.1695 21.988 10.2171 22 10.2645 22C10.3405 22 10.4154 21.9692 10.4673 21.9113L18.9379 12.4112C19.0043 12.3368 19.0186 12.2328 18.9752 12.1445Z" fill="white"/>
</svg>
