<svg width="30" height="30" viewBox="0 0 30 30" fill="none" xmlns="http://www.w3.org/2000/svg">
<path d="M28.9572 26.4212L26.3175 10.7759C26.0692 9.30075 24.7814 8.22264 23.2742 8.22264H19.308C19.7731 7.41877 20.039 6.48752 20.039 5.49584C20.039 2.46556 17.5545 0 14.4995 0C11.4451 0 8.95993 2.46556 8.95993 5.49584C8.95993 6.48752 9.22587 7.41877 9.69094 8.22264H5.72476C4.21689 8.22264 2.92977 9.30205 2.68151 10.7772L0.0424113 26.4245C-0.10759 27.3115 0.144595 28.2246 0.730844 28.9108C1.31775 29.5977 2.17845 30 3.08632 30H25.9153C26.8231 30 27.6838 29.5977 28.2708 28.9108C28.8563 28.2233 29.1079 27.3089 28.9572 26.4212ZM14.5001 3.20185C15.7748 3.20185 16.8124 4.23122 16.8124 5.49649C16.8124 6.76176 15.7748 7.79049 14.5001 7.79049C13.2248 7.79049 12.1872 6.76111 12.1872 5.49584C12.1872 4.23057 13.2248 3.20185 14.5001 3.20185Z" fill="#00B2FF"/>
</svg>
