<svg width="30" height="30" viewBox="0 0 30 30" fill="none" xmlns="http://www.w3.org/2000/svg">
<path d="M15 0C12.0333 0 9.13319 0.879734 6.66645 2.52796C4.19971 4.17618 2.27713 6.51885 1.14181 9.25974C0.00649926 12.0006 -0.290551 15.0166 0.288227 17.9263C0.867006 20.8361 2.29562 23.5088 4.3934 25.6066C6.49119 27.7044 9.16394 29.133 12.0736 29.7118C14.9834 30.2905 17.9994 29.9935 20.7403 28.8582C23.4811 27.7229 25.8238 25.8003 27.472 23.3335C29.1203 20.8668 30 17.9667 30 15C30 13.0302 29.612 11.0796 28.8582 9.25974C28.1044 7.43986 26.9995 5.78628 25.6066 4.3934C24.2137 3.00052 22.5601 1.89563 20.7403 1.14181C18.9204 0.387986 16.9698 0 15 0ZM24 14.7C24.0233 14.9592 23.9713 15.2197 23.85 15.45L20.7 22.8C20.5357 23.1747 20.261 23.4904 19.9126 23.7048C19.5641 23.9192 19.1585 24.0222 18.75 24H10.5C9.70435 24 8.94129 23.6839 8.37868 23.1213C7.81607 22.5587 7.5 21.7956 7.5 21V13.5C7.48502 13.2214 7.53094 12.9429 7.63456 12.6838C7.73818 12.4248 7.89701 12.1914 8.1 12L15 4.5L16.035 5.535C16.3075 5.81875 16.4675 6.19197 16.485 6.585V6.885L15.615 12H22.5C22.8978 12 23.2794 12.158 23.5607 12.4393C23.842 12.7206 24 13.1022 24 13.5V14.7Z" fill="#00B2FF"/>
</svg>
