<svg width="30" height="30" viewBox="0 0 30 30" fill="none" xmlns="http://www.w3.org/2000/svg">
<path d="M24.5455 1L17.7273 7.82927V22.8537L24.5455 16.7073V1ZM0 7.82927V27.839C0 28.1805 0.340909 28.522 0.681818 28.522C0.818182 28.522 0.886364 28.4537 1.02273 28.4537C2.86364 27.5659 5.52273 26.9512 7.5 26.9512C10.1591 26.9512 13.0227 27.4976 15 29V7.82927C13.0227 6.32683 10.1591 5.78049 7.5 5.78049C4.84091 5.78049 1.97727 6.32683 0 7.82927ZM30 26.2683V7.82927C29.1818 7.21463 28.2955 6.80488 27.2727 6.46341V24.9024C25.7727 24.4244 24.1364 24.2195 22.5 24.2195C20.1818 24.2195 16.8409 25.1073 15 26.2683V29C16.8409 27.839 20.1818 26.9512 22.5 26.9512C24.75 26.9512 27.0682 27.361 28.9773 28.3854C29.1136 28.4537 29.1818 28.4537 29.3182 28.4537C29.6591 28.4537 30 28.1122 30 27.7707V26.2683Z" fill="#00B2FF"/>
</svg>
