<svg width="30" height="30" viewBox="0 0 30 30" fill="none" xmlns="http://www.w3.org/2000/svg">
<path d="M26.3809 3.56736L14.7498 0.0370898C14.5869 -0.0123633 14.4134 -0.0123633 14.2504 0.0370898L2.61906 3.56736C2.25164 3.67887 2 4.02105 2 4.40918V17.3535C2 19.0371 2.67373 20.7606 4.00237 22.476C5.0171 23.7862 6.42103 25.1018 8.175 26.3863C11.1216 28.5442 14.0231 29.868 14.1452 29.9232C14.258 29.9744 14.3791 30 14.5001 30C14.6212 30 14.7422 29.9745 14.8551 29.9232C14.9771 29.868 17.8786 28.5442 20.8251 26.3863C22.5791 25.1018 23.983 23.7862 24.9977 22.476C26.3264 20.7606 27 19.0372 27 17.3535V4.40918C27 4.02105 26.7485 3.67887 26.3809 3.56736Z" fill="#00B2FF"/>
<path d="M14.5 7C10.8356 10.185 9 12.936 9 15.26C9 18.746 11.6125 21 14.5 21C17.3875 21 20 18.746 20 15.26C20 12.936 18.1644 10.185 14.5 7ZM11.6331 15.4C11.8875 15.4 12.0937 15.582 12.1419 15.834C12.4237 17.388 13.7094 17.92 14.6444 17.843C14.94 17.829 15.1875 18.067 15.1875 18.368C15.1875 18.648 14.9675 18.879 14.6925 18.893C13.2281 18.984 11.5163 18.13 11.1244 16.009C11.0694 15.694 11.3169 15.4 11.6331 15.4Z" fill="white"/>
</svg>
