<svg width="30" height="30" viewBox="0 0 30 30" fill="none" xmlns="http://www.w3.org/2000/svg">
<path d="M20.8154 0H8.18462C6.9758 0 6 0.97952 6 2.18534V27.8168C6 29.0216 6.9758 30 8.18462 30H20.8154C22.022 30 23 29.0216 23 27.8168V2.18534C23 0.97952 22.022 0 20.8154 0ZM11.3833 1.32716H17.6189C17.7764 1.32716 17.9044 1.5622 17.9044 1.853C17.9044 2.14379 17.7764 2.37993 17.6189 2.37993H11.3833C11.2247 2.37993 11.0989 2.14379 11.0989 1.853C11.0989 1.5622 11.2247 1.32716 11.3833 1.32716ZM14.5011 27.8431C13.732 27.8431 13.1063 27.2178 13.1063 26.4481C13.1063 25.6785 13.732 25.0554 14.5011 25.0554C15.268 25.0554 15.8937 25.6785 15.8937 26.4481C15.8937 27.2178 15.268 27.8431 14.5011 27.8431ZM21.3635 23.0668H7.63764V3.68741H21.3635V23.0668Z" fill="#00B2FF"/>
</svg>
