<svg width="21" height="26" viewBox="0 0 21 26" fill="none" xmlns="http://www.w3.org/2000/svg">
<path d="M4.35693 8.51C4.18093 7.914 4.01193 7.317 3.88493 6.745C3.04993 6.251 2.48193 5.352 2.48193 4.313C2.48193 2.75 3.75293 1.48 5.31493 1.48C6.87693 1.48 8.14793 2.751 8.14793 4.313C8.14793 4.528 8.11893 4.735 8.07393 4.936C8.34493 5.533 8.56393 6.205 8.75593 6.888C9.29593 6.168 9.62793 5.283 9.62793 4.313C9.62793 1.93 7.69793 0 5.31493 0C2.93193 0 1.00293 1.93 1.00293 4.313C1.00293 6.365 2.43793 8.074 4.35693 8.51Z" fill="#00B2FF"/>
<path d="M1.37801 18.7209C2.44101 17.5719 3.63401 18.0219 5.23101 18.2649C6.60301 18.4759 7.95401 18.0909 7.86401 17.3499C7.72201 16.1509 7.52201 15.6149 7.06701 14.0619C6.70401 12.8269 6.01501 10.6009 5.38801 8.47291C4.54801 5.62591 4.30501 4.30391 5.42301 3.97391C6.62801 3.62291 7.31901 5.33491 7.94501 7.70891C8.65801 10.4109 9.03301 11.6039 9.24301 11.5409C9.61301 11.4349 9.10701 10.2789 10.075 9.99391C11.285 9.64191 11.519 10.5879 11.858 10.4929C12.197 10.3909 12.082 9.43291 13.047 9.15091C14.017 8.87091 14.504 10.0649 14.904 9.94591C15.3 9.82891 15.291 9.39791 15.889 9.22691C16.488 9.04891 18.742 10.0579 20.032 14.4649C21.651 20.0059 19.827 21.0359 20.38 22.9119L13.153 25.6599C12.568 24.2529 10.756 24.1489 9.15301 23.2519C7.53801 22.3429 6.44101 20.5719 2.23201 20.6579C0.649009 20.6899 0.724009 19.4279 1.37801 18.7209Z" fill="#00B2FF"/>
</svg>
