<svg width="30" height="30" viewBox="0 0 30 30" fill="none" xmlns="http://www.w3.org/2000/svg">
<path d="M26.5123 21.1016L23.611 19.3424L26.1253 17.7853C26.589 17.4981 26.7433 16.8705 26.4698 16.3835C26.1964 15.8966 25.5989 15.7346 25.135 16.0216L21.6716 18.1664L16.4495 14.9999L21.6707 11.834L25.1352 13.9785C25.2905 14.0747 25.461 14.1203 25.6292 14.1203C25.963 14.1203 26.288 13.9401 26.4698 13.6162C26.7432 13.1292 26.5888 12.5016 26.125 12.2144L23.6104 10.6579L26.5123 8.89827C26.9786 8.61558 27.1383 7.98945 26.8691 7.49983C26.5999 7.01007 26.0038 6.84231 25.5376 7.12514L22.6362 8.88448L22.6098 5.81856C22.605 5.25318 22.1634 4.79632 21.6264 4.8041C21.088 4.80915 20.6555 5.27161 20.6604 5.83699L20.6967 10.0604L15.4748 13.2268V6.89459L18.9759 4.81652C19.4445 4.53834 19.6097 3.91385 19.3449 3.4215C19.08 2.92928 18.4852 2.75565 18.0166 3.03397L15.4748 4.5427V1.02375C15.4748 0.458365 15.0384 0 14.5001 0C13.9617 0 13.5253 0.458365 13.5253 1.02375V4.5427L10.9836 3.03411C10.5146 2.75579 9.92029 2.92928 9.65528 3.42163C9.3904 3.91385 9.55559 4.53847 10.0243 4.81666L13.5252 6.89473V13.2268L8.30332 10.0604L8.33959 5.83699C8.34452 5.27161 7.91198 4.80915 7.37364 4.8041C7.37065 4.8041 7.36779 4.8041 7.36468 4.8041C6.8305 4.8041 6.39496 5.25632 6.39016 5.8187L6.36377 8.88448L3.46244 7.12514C2.99623 6.84231 2.40005 7.01021 2.13089 7.49983C1.86172 7.98945 2.02145 8.61558 2.48765 8.89827L5.38951 10.6579L2.87445 12.2147C2.41071 12.5017 2.25631 13.1293 2.52964 13.6165C2.71146 13.9404 3.03652 14.1206 3.37042 14.1206C3.5386 14.1206 3.70899 14.0749 3.86443 13.9788L7.32932 11.8342L12.5506 15.0002L7.32841 18.1667L3.86443 16.0215C3.40096 15.7344 2.80309 15.8963 2.52964 16.3834C2.25618 16.8704 2.41045 17.498 2.87419 17.7851L5.38886 19.3423L2.48752 21.1015C2.02132 21.3841 1.86159 22.0103 2.13076 22.4999C2.31128 22.8283 2.63894 23.0119 2.97582 23.0119C3.14115 23.0119 3.30881 22.9677 3.46231 22.8746L6.36364 21.1152L6.39003 24.1813C6.39483 24.7435 6.83037 25.1959 7.36455 25.1959C7.36754 25.1959 7.37052 25.1959 7.37351 25.1958C7.91185 25.1907 8.34439 24.7283 8.33946 24.1629L8.30319 19.9393L13.5252 16.7729V23.1053L10.0243 25.1833C9.55559 25.4615 9.3904 26.086 9.65528 26.5784C9.83451 26.9114 10.1648 27.0986 10.5048 27.0986C10.6672 27.0986 10.832 27.0558 10.9836 26.9659L13.5253 25.4573V28.9763C13.5253 29.5416 13.9617 30 14.5001 30C15.0384 30 15.4748 29.5416 15.4748 28.9763V25.4573L18.0166 26.9659C18.1681 27.0558 18.3328 27.0986 18.4954 27.0986C18.8354 27.0986 19.1656 26.9114 19.3449 26.5784C19.6097 26.0861 19.4445 25.4615 18.9759 25.1833L15.4748 23.1053V16.7731L20.6967 19.9393L20.6595 24.1627C20.6544 24.7281 21.0869 25.1907 21.6252 25.1959C21.6283 25.196 21.6313 25.196 21.6344 25.196C22.1685 25.196 22.604 24.7438 22.6089 24.1817L22.636 21.1152L25.5377 22.8747C25.6912 22.9678 25.8589 23.012 26.0242 23.012C26.3611 23.012 26.6887 22.8283 26.8692 22.5C27.1384 22.0104 26.9787 21.3843 26.5123 21.1016Z" fill="#00B2FF"/>
</svg>
