<svg width="30" height="30" viewBox="0 0 30 30" fill="none" xmlns="http://www.w3.org/2000/svg">
<path d="M26.3809 3.56736L14.7498 0.0370898C14.5869 -0.0123633 14.4134 -0.0123633 14.2504 0.0370898L2.61906 3.56736C2.25164 3.67887 2 4.02105 2 4.40918V17.3535C2 19.0371 2.67373 20.7606 4.00237 22.476C5.0171 23.7862 6.42103 25.1018 8.175 26.3863C11.1216 28.5442 14.0231 29.868 14.1452 29.9232C14.258 29.9744 14.3791 30 14.5001 30C14.6212 30 14.7422 29.9745 14.8551 29.9232C14.9771 29.868 17.8786 28.5442 20.8251 26.3863C22.5791 25.1018 23.983 23.7862 24.9977 22.476C26.3264 20.7606 27 19.0372 27 17.3535V4.40918C27 4.02105 26.7485 3.67887 26.3809 3.56736Z" fill="#00B2FF"/>
<path d="M8.27373 17.847C8.0817 17.9957 7.97592 18.0778 7.71395 18.0778C7.4516 18.0778 7.34582 17.9957 7.15379 17.847C6.91771 17.6644 6.59463 17.4146 6 17.4146V18.3549C6.2621 18.3549 6.36775 18.4366 6.56016 18.5852C6.79599 18.7679 7.11895 19.0181 7.71395 19.0181C8.30858 19.0181 8.63166 18.7679 8.86787 18.5852C9.05977 18.4366 9.16555 18.3549 9.42765 18.3549C9.44482 18.3549 9.4615 18.3552 9.47743 18.3558C9.3541 18.0583 9.25541 17.749 9.18347 17.4297C8.7403 17.4863 8.47534 17.691 8.27373 17.847Z" fill="white"/>
<path d="M9.12436 15.4359C8.71628 15.5023 8.46614 15.696 8.27373 15.8448C8.0817 15.9934 7.97592 16.0752 7.71395 16.0752C7.4516 16.0752 7.34582 15.9934 7.15379 15.8448C6.91771 15.6622 6.59463 15.4121 6 15.4121V16.3523C6.26197 16.3523 6.36775 16.4344 6.56016 16.583C6.79599 16.7657 7.11895 17.0155 7.71395 17.0155C8.30858 17.0155 8.63166 16.7657 8.86774 16.583C8.93582 16.5304 8.99306 16.4858 9.05019 16.451C9.04546 16.3577 9.04322 16.2633 9.04322 16.1687C9.04322 15.9452 9.07035 15.7007 9.12436 15.4359Z" fill="white"/>
<path d="M9.42752 13.4092C8.83289 13.4092 8.50982 13.6592 8.27373 13.8419C8.0817 13.9905 7.97592 14.0723 7.71395 14.0723C7.4516 14.0723 7.34582 13.9905 7.15379 13.8419C6.91771 13.6592 6.59463 13.4092 6 13.4092V14.3494C6.26197 14.3494 6.36775 14.4315 6.56016 14.5801C6.79599 14.7625 7.11895 15.0126 7.71395 15.0126C8.30858 15.0126 8.63166 14.7625 8.86774 14.5801C9.05977 14.4315 9.16555 14.3494 9.42765 14.3494C9.43586 14.3494 9.44383 14.3494 9.45192 14.3497C9.55982 14.0673 9.68962 13.7689 9.8407 13.4546C9.71924 13.426 9.58284 13.4092 9.42752 13.4092Z" fill="white"/>
<path d="M18.119 10.0797C16.7548 8.09546 15.3716 6.45325 15.3575 6.43689L14.9885 6L14.6194 6.43689C14.6057 6.45325 13.2222 8.09546 11.8584 10.0797C10.9827 11.3534 10.309 12.4803 9.84093 13.4548C10.1854 13.5354 10.4072 13.7072 10.5817 13.8422C10.7737 13.9907 10.8794 14.0725 11.1417 14.0725C11.4038 14.0725 11.5098 13.9907 11.7019 13.8422C11.9377 13.6594 12.2608 13.4094 12.8557 13.4094C13.4503 13.4094 13.7736 13.6594 14.0094 13.8422C14.2016 13.9907 14.3073 14.0725 14.5696 14.0725C14.8316 14.0725 14.9374 13.9907 15.1298 13.8422C15.3655 13.6594 15.6885 13.4094 16.2836 13.4094V14.3496C16.0212 14.3496 15.9154 14.4318 15.7234 14.5803C15.4873 14.7627 15.1642 15.0128 14.5696 15.0128C13.9747 15.0128 13.6516 14.7627 13.4158 14.5803C13.2234 14.4318 13.1176 14.3496 12.8557 14.3496C12.5933 14.3496 12.4875 14.4318 12.2955 14.5803C12.0597 14.7627 11.7363 15.0128 11.1417 15.0128C10.5467 15.0128 10.2237 14.7627 9.98791 14.5803C9.80186 14.4364 9.69682 14.355 9.45202 14.35C9.30094 14.7435 9.19167 15.1056 9.12447 15.4359C9.21693 15.4205 9.31786 15.4121 9.42775 15.4121C10.0228 15.4121 10.3457 15.6622 10.5815 15.845C10.7736 15.9934 10.8794 16.0753 11.1417 16.0753C11.4037 16.0753 11.5098 15.9934 11.7019 15.845C11.9376 15.6622 12.2606 15.4121 12.8557 15.4121C13.4503 15.4121 13.7736 15.6622 14.0094 15.845C14.2015 15.9934 14.3073 16.0753 14.5696 16.0753C14.8316 16.0753 14.9374 15.9934 15.1296 15.845C15.3655 15.6622 15.6885 15.4121 16.2834 15.4121V16.3523C16.0211 16.3523 15.9154 16.4344 15.7234 16.583C15.4872 16.7657 15.1642 17.0155 14.5696 17.0155C13.9746 17.0155 13.6515 16.7657 13.4157 16.583C13.2234 16.4344 13.1176 16.3523 12.8557 16.3523C12.5933 16.3523 12.4875 16.4344 12.2955 16.583C12.0597 16.7657 11.7363 17.0155 11.1417 17.0155C10.5467 17.0155 10.2236 16.7657 9.98779 16.583C9.79576 16.4344 9.68997 16.3523 9.42763 16.3523C9.25863 16.3523 9.15446 16.3865 9.05029 16.451C9.0666 16.7855 9.11165 17.1127 9.18358 17.4302C9.25925 17.4204 9.34076 17.4152 9.42763 17.4152C10.0226 17.4152 10.3457 17.6649 10.5814 17.8477C10.7735 17.9962 10.8792 18.0784 11.1416 18.0784C11.4036 18.0784 11.5097 17.9962 11.7017 17.8477C11.9374 17.6649 12.2605 17.4152 12.8555 17.4152C13.4502 17.4152 13.7735 17.6649 14.0093 17.8477C14.2013 17.9962 14.3071 18.0784 14.5695 18.0784C14.8314 18.0784 14.9372 17.9962 15.1296 17.8477C15.3653 17.6649 15.6884 17.4152 16.2834 17.4152V18.3553C16.0211 18.3553 15.9153 18.4371 15.7233 18.5857C15.4872 18.7684 15.1641 19.0186 14.5695 19.0186C13.9745 19.0186 13.6514 18.7684 13.4157 18.5857C13.2233 18.4371 13.1175 18.3553 12.8555 18.3553C12.5932 18.3553 12.4874 18.4371 12.2954 18.5857C12.0595 18.7684 11.7362 19.0186 11.1416 19.0186C10.5466 19.0186 10.2235 18.7684 9.98766 18.5857C9.8082 18.4469 9.70429 18.3663 9.47741 18.3563C10.3614 20.491 12.4987 22 14.9885 22C18.2668 22 20.9336 19.3839 20.9336 16.1687C20.9336 14.8455 19.9865 12.7966 18.119 10.0797Z" fill="white"/>
</svg>
