<svg width="60" height="60" viewBox="0 0 60 60" fill="none" xmlns="http://www.w3.org/2000/svg">
<path d="M40.4626 60V48.2143H50.0612V35.0357L57 33.5357L50.6395 23.1429V23.0357C50.9864 20.7857 50.9864 18.5357 50.5238 16.3929L50.4082 15.9643H48.0952V14.1429L48.3265 13.9286C50.6395 12.5357 52.0272 10.1786 52.0272 7.60714C51.9116 3.42857 48.2109 0 43.7007 0C39.1905 0 35.6054 3.32143 35.4898 7.5V7.60714L34.7959 7.71429L32.7143 0.642857L24.2721 3.96429L26.8163 5.14286L24.1565 10.5H21.9592C20.6871 10.5 19.7619 9.53571 19.7619 8.46429V4.60714H21.6122V0H16.6395V4.60714H18.4898V8.46429C18.4898 10.1786 19.9932 11.6786 21.9592 11.6786H23.4626L21.381 15.8571H16.5238L10.8571 3.75L6 0.428571V6.10714L10.5102 15.9643H8.42857L8.31292 16.3929C8.08163 17.5714 7.96598 18.8571 7.96598 20.0357V23.25C7.96598 30 11.2041 39.3214 18.2585 43.9286H18.3741V60H40.4626ZM39.3061 58.9286H19.5306V43.2857L19.2993 43.1786C12.5918 38.8929 9.12244 29.8929 9.12244 23.1429V19.9286C9.12244 19.0714 9.23809 18.1071 9.35374 17.25V16.9286H49.483V17.25C49.8299 19.0714 49.8299 21.1071 49.3673 23.1429V23.3571L55.1497 32.7857L48.7891 34.1786V47.0357H39.3061V58.9286ZM15.2517 15.8571H11.7823L7.38775 6.10714L10.1633 4.82143L15.2517 15.8571ZM27.1633 15.8571H22.7687L24.8503 11.6786H29.2449L27.1633 15.8571ZM31.3265 11.6786C32.5986 11.6786 33.5238 12.6429 33.5238 13.8214V15.8571H28.4354L30.517 11.6786H31.3265ZM35.6054 8.89286V9C36.068 11.0357 37.3401 12.75 39.0748 13.8214L39.1905 13.9286V15.75H34.6803V13.7143C34.6803 12 33.2925 10.6071 31.4422 10.5H30.9796L32.5986 7.5L35.6054 8.89286ZM43.7007 5.35714C42.3129 5.35714 41.1565 6.42857 41.1565 7.71429C41.1565 8.67857 41.8503 9.53571 42.7755 9.85714H43.1224V15.8571H40.4626V13.3929L40.1156 13.2857C37.9184 12.1071 36.6463 9.96428 36.6463 7.71429C36.6463 4.17857 39.7687 1.17857 43.7007 1.17857C47.6327 1.17857 50.7551 4.07143 50.7551 7.60714C50.7551 9.96428 49.3673 12.1071 47.2857 13.1786L46.9388 13.3929L47.0544 15.8571H44.2789V9.85714L44.5102 9.75C45.551 9.42857 46.2449 8.57143 46.2449 7.60714C46.2449 6.32143 45.0884 5.35714 43.7007 5.35714ZM29.7075 10.6071H25.3129L28.2041 4.71429L26.932 4.17857L31.7891 2.25L33.1769 6.64286L31.9048 6.10714L29.7075 10.6071ZM43.7007 6.42857C44.3946 6.42857 44.9728 6.96429 44.9728 7.60714C44.9728 8.25 44.3946 8.78571 43.7007 8.78571C43.0068 8.78571 42.4286 8.25 42.4286 7.60714C42.4286 6.96429 43.0068 6.42857 43.7007 6.42857ZM9.23809 3.96429L7.15646 4.92857V2.57143L9.23809 3.96429ZM20.2245 3.53571H17.6803V1.17857H20.3401V3.53571H20.2245ZM41.8503 24C44.2789 24 46.1293 22.5 46.2449 20.25H45.0884C44.9728 21.8571 43.7007 22.9286 41.8503 22.9286C40 22.9286 38.8435 21.8571 38.6122 20.25H37.4558C37.5714 22.5 39.3061 24 41.8503 24Z" fill="#14326D"/>
<path d="M17.5 29C18.4844 29 19.3594 28.6719 19.9062 27.9063C20.5625 27.25 21 26.2656 21 25.5C21 24.5156 20.6719 23.6406 19.9062 23.0937C19.25 22.4375 18.2656 22 17.5 22C16.5156 22 15.6406 22.3281 15.0938 23.0937C14.4375 23.75 14 24.7344 14 25.5C14 26.4844 14.3281 27.3594 15.0938 27.9063C15.6406 28.6719 16.5156 29 17.5 29ZM17.5 23.75C17.9375 23.75 18.375 23.9688 18.8125 24.2969C19.1406 24.625 19.3594 25.1719 19.3594 25.6094C19.3594 26.0469 19.1406 26.4844 18.8125 26.9219C18.4844 27.25 17.9375 27.4687 17.5 27.4687C17.0625 27.4687 16.625 27.25 16.1875 26.9219C15.8594 26.5937 15.6406 26.0469 15.6406 25.6094C15.6406 25.1719 15.8594 24.625 16.1875 24.2969C16.5156 23.8594 16.9531 23.75 17.5 23.75Z" fill="#00B2FF"/>
</svg>
