<svg width="60" height="60" viewBox="0 0 60 60" fill="none" xmlns="http://www.w3.org/2000/svg">
<path d="M49.2235 53.7857C48.1467 53.7857 47.3093 53.0357 47.3093 52.0714V43.9286C47.3093 42.9643 48.1467 42.2143 49.2235 42.2143H50.6591C51.7359 42.2143 52.5734 42.9643 52.5734 43.9286V52.0714C52.5734 53.0357 51.7359 53.7857 50.6591 53.7857H49.2235ZM49.2235 43.1786C48.7449 43.1786 48.5056 43.5 48.5056 43.8214V51.9643C48.5056 52.3929 48.8646 52.6071 49.2235 52.6071H50.6591C51.1377 52.6071 51.377 52.2857 51.377 51.9643V43.8214C51.377 43.3929 51.0181 43.1786 50.6591 43.1786H49.2235ZM42.0451 53.7857C41.088 53.7857 40.2506 53.0357 40.2506 52.1786V50.5714C40.2506 49.7143 41.088 48.9643 42.0451 48.9643H43.8397C44.7968 48.9643 45.6343 49.7143 45.6343 50.5714V52.1786C45.6343 53.0357 44.7968 53.7857 43.8397 53.7857H42.0451ZM42.0451 50.0357C41.6862 50.0357 41.447 50.25 41.447 50.5714V52.1786C41.447 52.5 41.6862 52.7143 42.0451 52.7143H43.8397C44.1986 52.7143 44.4379 52.5 44.4379 52.1786V50.5714C44.4379 50.25 44.1986 50.0357 43.8397 50.0357H42.0451ZM34.9865 53.7857C34.0293 53.7857 33.1919 53.0357 33.1919 52.1786V50.5714C33.1919 49.7143 34.0293 48.9643 34.9865 48.9643H36.781C37.7381 48.9643 38.5756 49.7143 38.5756 50.5714V52.1786C38.5756 53.0357 37.7381 53.7857 36.781 53.7857H34.9865ZM34.9865 50.0357C34.6275 50.0357 34.3883 50.25 34.3883 50.5714V52.1786C34.3883 52.5 34.6275 52.7143 34.9865 52.7143H36.781C37.14 52.7143 37.3792 52.5 37.3792 52.1786V50.5714C37.3792 50.25 37.14 50.0357 36.781 50.0357H34.9865ZM42.0451 46.8214C41.088 46.8214 40.2506 46.0714 40.2506 45.2143V43.6071C40.2506 42.75 41.088 42 42.0451 42H43.8397C44.7968 42 45.6343 42.75 45.6343 43.6071V45.2143C45.6343 46.0714 44.7968 46.8214 43.8397 46.8214H42.0451ZM42.0451 43.1786C41.6862 43.1786 41.447 43.3929 41.447 43.7143V45.3214C41.447 45.6429 41.6862 45.8571 42.0451 45.8571H43.8397C44.1986 45.8571 44.4379 45.6429 44.4379 45.3214V43.7143C44.4379 43.3929 44.1986 43.1786 43.8397 43.1786H42.0451ZM34.9865 46.8214C34.0293 46.8214 33.1919 46.0714 33.1919 45.2143V43.6071C33.1919 42.75 34.0293 42 34.9865 42H36.781C37.7381 42 38.5756 42.75 38.5756 43.6071V45.2143C38.5756 46.0714 37.7381 46.8214 36.781 46.8214H34.9865ZM34.9865 43.1786C34.6275 43.1786 34.3883 43.3929 34.3883 43.7143V45.3214C34.3883 45.6429 34.6275 45.8571 34.9865 45.8571H36.781C37.14 45.8571 37.3792 45.6429 37.3792 45.3214V43.7143C37.3792 43.3929 37.14 43.1786 36.781 43.1786H34.9865ZM48.9842 39.9643C48.0271 39.9643 47.1896 39.2143 47.1896 38.3571V36.75C47.1896 35.8929 48.0271 35.1429 48.9842 35.1429H50.7788C51.7359 35.1429 52.5734 35.8929 52.5734 36.75V38.3571C52.5734 39.2143 51.7359 39.9643 50.7788 39.9643H48.9842ZM48.9842 36.2143C48.6253 36.2143 48.386 36.4286 48.386 36.75V38.3571C48.386 38.6786 48.6253 38.8929 48.9842 38.8929H50.7788C51.1377 38.8929 51.377 38.6786 51.377 38.3571V36.75C51.377 36.4286 51.1377 36.2143 50.7788 36.2143H48.9842ZM42.0451 39.9643C41.088 39.9643 40.2506 39.2143 40.2506 38.3571V36.75C40.2506 35.8929 41.088 35.1429 42.0451 35.1429H43.8397C44.7968 35.1429 45.6343 35.8929 45.6343 36.75V38.3571C45.6343 39.2143 44.7968 39.9643 43.8397 39.9643H42.0451ZM42.0451 36.2143C41.6862 36.2143 41.447 36.4286 41.447 36.75V38.3571C41.447 38.6786 41.6862 38.8929 42.0451 38.8929H43.8397C44.1986 38.8929 44.4379 38.6786 44.4379 38.3571V36.75C44.4379 36.4286 44.1986 36.2143 43.8397 36.2143H42.0451ZM34.9865 39.9643C34.0293 39.9643 33.1919 39.2143 33.1919 38.3571V36.75C33.1919 35.8929 34.0293 35.1429 34.9865 35.1429H36.781C37.7381 35.1429 38.5756 35.8929 38.5756 36.75V38.3571C38.5756 39.2143 37.7381 39.9643 36.781 39.9643H34.9865ZM34.9865 36.2143C34.6275 36.2143 34.3883 36.4286 34.3883 36.75V38.3571C34.3883 38.6786 34.6275 38.8929 34.9865 38.8929H36.781C37.14 38.8929 37.3792 38.6786 37.3792 38.3571V36.75C37.3792 36.4286 37.14 36.2143 36.781 36.2143H34.9865ZM35.1061 31.1786C34.149 31.1786 33.3115 30.4286 33.3115 29.5714V24.75C33.3115 23.8929 34.149 23.1429 35.1061 23.1429H50.7788C51.7359 23.1429 52.5734 23.8929 52.5734 24.75V29.5714C52.5734 30.4286 51.7359 31.1786 50.7788 31.1786H35.1061ZM35.1061 24.1071C34.7472 24.1071 34.3883 24.4286 34.3883 24.75V29.5714C34.3883 29.8929 34.7472 30.2143 35.1061 30.2143H50.7788C51.1377 30.2143 51.4966 29.8929 51.4966 29.5714V24.75C51.4966 24.4286 51.1377 24.1071 50.7788 24.1071H35.1061ZM11.4176 16.1786C11.0587 16.1786 10.8194 15.9643 10.8194 15.6429C10.8194 15.3214 11.0587 15.1071 11.4176 15.1071H31.2777C31.6366 15.1071 31.8758 15.3214 31.8758 15.6429C31.8758 15.9643 31.6366 16.1786 31.2777 16.1786H11.4176ZM5.79458 60C4.83747 60 4 59.25 4 58.3929V1.60714C4 0.75 4.83747 0 5.79458 0H32.1151C32.2348 0 32.474 0.107143 32.474 0.107143L44.1986 10.6071C44.3183 10.7143 44.3183 10.8214 44.3183 10.9286V19.0714H53.7697C55.5643 19.0714 57 20.3571 57 21.9643V57C57 58.6071 55.5643 59.8929 53.7697 59.8929H5.79458V60ZM31.7562 20.25C30.5598 20.25 29.6027 21.1071 29.6027 22.1786V57.2143C29.6027 58.2857 30.5598 59.1429 31.7562 59.1429H54.009C55.2054 59.1429 56.1625 58.2857 56.1625 57.2143V22.0714C56.1625 21 55.2054 20.1429 54.009 20.1429H31.7562V20.25ZM5.79458 1.07143C5.43567 1.07143 5.19639 1.28571 5.19639 1.60714V58.2857C5.19639 58.7143 5.43567 58.9286 5.79458 58.9286H29.1242L28.8849 58.5C28.6456 58.0714 28.526 57.5357 28.526 57.1071V45.8571H11.4176C11.0587 45.8571 10.8194 45.6429 10.8194 45.3214C10.8194 45 11.0587 44.7857 11.4176 44.7857H28.526V38.3571H11.4176C11.0587 38.3571 10.8194 38.1429 10.8194 37.8214C10.8194 37.5 11.0587 37.2857 11.4176 37.2857H28.526V30.8571H11.4176C11.0587 30.8571 10.8194 30.6429 10.8194 30.3214C10.8194 30 11.0587 29.7857 11.4176 29.7857H28.526V23.3571H11.4176C11.0587 23.3571 10.8194 23.1429 10.8194 22.8214C10.8194 22.5 11.0587 22.2857 11.4176 22.2857H28.526V21.8571C28.526 20.25 29.9616 18.9643 31.7562 18.9643H43.3612V11.25H34.7472C33.0722 11.25 31.6366 9.96429 31.6366 8.46429V1.07143H5.79458ZM32.7133 8.78571C32.7133 9.75 33.5508 10.5 34.6275 10.5H42.4041L32.7133 1.82143V8.78571Z" fill="#14326D"/>
<path d="M13.8669 11.1652C13.0152 11.1652 12.258 10.884 11.7848 10.2277C11.217 9.66522 10.8384 8.82147 10.8384 8.16522C10.8384 7.32147 11.1223 6.57147 11.7848 6.10272C12.3527 5.54022 13.2044 5.16522 13.8669 5.16522C14.7187 5.16522 15.4759 5.44647 15.9491 6.10272C16.517 6.66522 16.8955 7.50897 16.8955 8.16522C16.8955 9.00897 16.6116 9.75897 15.9491 10.2277C15.4759 10.884 14.7187 11.1652 13.8669 11.1652ZM13.8669 6.66522C13.4884 6.66522 13.1098 6.85272 12.7312 7.13397C12.4473 7.41522 12.258 7.88397 12.258 8.25897C12.258 8.63397 12.4473 9.00897 12.7312 9.38397C13.0152 9.66522 13.4884 9.85272 13.8669 9.85272C14.2455 9.85272 14.6241 9.66522 15.0027 9.38397C15.2866 9.10272 15.4759 8.63397 15.4759 8.25897C15.4759 7.88397 15.2866 7.41522 15.0027 7.13397C14.7187 6.75897 14.3402 6.66522 13.8669 6.66522Z" fill="#00B2FF"/>
</svg>
